<svg width="30" height="30" viewBox="0 0 30 30" fill="none" xmlns="http://www.w3.org/2000/svg">
<path d="M13.7198 0.058218C10.1825 0.294664 6.74356 1.61729 4.22999 3.71978C2.08438 5.5153 0.680509 7.77765 0.141122 10.3208C0.0247959 10.8511 0.00642856 11.1514 0 12.257C0 13.401 0.0183673 13.6502 0.141122 14.2252C0.698876 16.8133 2.115 19.0881 4.30377 20.9028L4.74489 21.2669L4.62213 21.6951C4.56091 21.9379 4.05826 23.7526 3.51856 25.7399L2.52581 29.3568L2.62989 29.5868C2.75877 29.8616 3.07744 30.047 3.33489 29.9895C3.43897 29.9704 4.89213 28.7499 6.96396 26.948C8.86437 25.2992 10.4522 23.9638 10.4951 23.9766C10.5379 23.9957 10.9243 24.079 11.3534 24.1684C13.7198 24.6476 16.3435 24.6476 18.6548 24.1684C23.4364 23.1843 27.3967 20.2767 29.0886 16.5195C29.7936 14.9409 30.0572 13.5991 29.9898 11.8483C29.9347 10.3084 29.6773 9.31152 28.9662 7.81626C28.4207 6.67233 27.8932 5.90555 26.9736 4.92148C25.766 3.61799 24.5767 2.72326 22.9888 1.91181C20.8371 0.806164 18.6731 0.224783 16.1167 0.0521545C15.0502 -0.018364 14.8295 -0.018364 13.7198 0.058218ZM17.6556 1.579C21.0272 2.14762 23.9023 3.58544 25.9255 5.70708C28.9478 8.8766 29.5606 13.0876 27.5256 16.6981C25.8275 19.7142 22.4926 21.9762 18.5445 22.8008C17.1529 23.0883 16.503 23.1524 14.8971 23.1457C13.3154 23.1393 12.3591 23.0305 11.0167 22.6983C10.324 22.5321 10.1339 22.5133 9.96855 22.6026C9.90732 22.6409 8.65039 23.7146 7.17305 24.999C5.6957 26.2833 4.47581 27.3312 4.46968 27.3184C4.46356 27.3121 4.83764 25.8934 5.30968 24.1744C5.7756 22.4491 6.16192 20.9858 6.16192 20.9156C6.16192 20.7046 6.00856 20.532 5.3957 20.0527C3.2553 18.3788 1.88204 16.2444 1.39775 13.8544C1.24438 13.0813 1.24438 11.4772 1.40387 10.6913C1.545 9.98193 1.86979 8.99147 2.15785 8.39733C3.83142 4.90839 7.74886 2.29472 12.3465 1.58538C13.5419 1.40637 13.5174 1.40638 15.2645 1.42552C16.5275 1.44498 17.024 1.47689 17.6556 1.579Z" fill="#353535"/>
<path d="M7.90801 10.9982C7.50331 11.139 7.30097 11.273 7.02515 11.586C6.64495 12.0206 6.51025 12.3783 6.51025 12.96C6.51025 13.5478 6.64525 13.9122 7.04964 14.3595C7.44209 14.8005 7.83423 14.9664 8.45964 14.9731C8.87658 14.9731 9.00515 14.9476 9.29964 14.7941C9.67984 14.6024 10.0046 14.2638 10.2192 13.842C10.3356 13.6119 10.3603 13.4715 10.3603 12.96C10.3603 12.2826 10.2685 12.0206 9.86382 11.5541C9.41627 11.0429 8.52729 10.7873 7.90801 10.9982ZM8.70515 12.3464C8.91974 12.4421 9.10372 12.7232 9.10372 12.96C9.10372 13.3882 8.66229 13.7332 8.26984 13.5991C7.69372 13.401 7.65056 12.6023 8.20862 12.3467C8.4477 12.2379 8.45382 12.2379 8.70515 12.3464Z" fill="#353535"/>
<path d="M14.3758 11.0173C12.9842 11.5413 12.5795 13.3304 13.6096 14.3978C14.0081 14.8196 14.3758 14.9664 14.989 14.9728C15.4365 14.9728 15.5528 14.9473 15.8225 14.8002C16.2884 14.5446 16.4785 14.3528 16.7115 13.9054C16.9016 13.535 16.92 13.4581 16.92 12.9596C16.9139 12.3205 16.7727 11.9373 16.3683 11.5218C15.8654 10.9982 15.007 10.7809 14.3758 11.0173ZM15.2645 12.3591C15.4546 12.4485 15.663 12.7682 15.663 12.9596C15.663 13.0043 15.6202 13.1323 15.5651 13.2471C15.4484 13.5091 15.1175 13.6881 14.8662 13.6307C14.6394 13.5796 14.3942 13.324 14.3452 13.0876C14.2901 12.832 14.4615 12.4807 14.7006 12.3591C14.9458 12.2315 15.0131 12.2315 15.2645 12.3591Z" fill="#353535"/>
<path d="M20.8862 11.0301C20.4815 11.1836 20.1628 11.4456 19.9115 11.8352C19.6479 12.2379 19.5684 12.5765 19.599 13.1195C19.6479 13.8608 20.0343 14.4677 20.6777 14.7938C21.1437 15.0366 21.8487 15.0494 22.3146 14.8257C23.6021 14.2124 23.8779 12.5063 22.854 11.4772C22.3636 10.9791 21.53 10.7937 20.8862 11.0301ZM21.7568 12.3464C22.3268 12.5956 22.2901 13.3943 21.7078 13.5988C21.3154 13.7332 20.8743 13.3879 20.8743 12.9597C20.8743 12.7296 21.0582 12.4421 21.2606 12.3528C21.5055 12.2379 21.5116 12.2379 21.7568 12.3464Z" fill="#353535"/>
</svg>
