<svg width="26" height="29" viewBox="0 0 26 29" fill="none" xmlns="http://www.w3.org/2000/svg">
<path d="M23.7888 11.9017L19.0002 9.16284L12.4404 14.0176L19.0002 18.8725L23.8042 16.1242C24.172 15.9046 24.4759 15.5942 24.6863 15.2235C24.8968 14.8527 25.0066 14.4342 25.0049 14.0089C25.0032 13.5836 24.8902 13.166 24.6769 12.7968C24.4635 12.4277 24.1571 12.1197 23.7876 11.9029L23.7888 11.9017Z" fill="#FF9100"/>
<path d="M14.0974 14.0177L8.29195 21.4088L0.746076 27.2941C0.509494 27.0619 0.321742 26.7855 0.193681 26.481C0.0656196 26.1765 -0.000209164 25.8499 4.99253e-07 25.5201V2.47322C-0.000209164 2.14337 0.0656196 1.81674 0.193681 1.51224C0.321742 1.20774 0.509494 0.931404 0.746076 0.699219L8.29195 6.62545L14.0974 14.0177Z" fill="#25D9F8"/>
<path d="M14.0938 14.0177L12.4385 16.1371V11.8994L14.0938 14.0177Z" fill="#00C0F1"/>
<path d="M19.0068 9.15459L14.0976 14.0164L0.745117 0.702602C0.905322 0.562192 1.0774 0.435654 1.25945 0.324382C1.64487 0.106148 2.08283 -0.00452607 2.52671 0.00413402C2.9706 0.0127941 3.40381 0.140465 3.78026 0.373562L12.4376 5.40869L19.0068 9.15459Z" fill="#7FE881"/>
<path d="M19.0077 9.15698L14.0938 14.0165L12.4385 12.3771V5.40991L19.0077 9.15698Z" fill="#5BC980"/>
<path d="M19.0066 18.8782L12.4385 22.6252L3.76468 27.6405C3.37922 27.8717 2.93834 27.9966 2.48772 28.0023C2.05728 27.996 1.6353 27.8829 1.26042 27.6733C1.07838 27.562 0.906306 27.4354 0.746094 27.295L14.0974 14.0164L19.0066 18.8782Z" fill="#FF637B"/>
<path d="M19.0075 18.8782L12.4395 22.6252V15.6557L14.0936 14.0164L19.0075 18.8782Z" fill="#E63950"/>
</svg>
