<svg width="65" height="65" viewBox="0 0 65 65" fill="none" xmlns="http://www.w3.org/2000/svg">
<path d="M43.4978 60.3177L56.5197 57.8345C58.1988 57.5217 59.4301 55.9771 59.4114 54.1783L59.3368 45.0866L60.6801 45.067L60.7547 54.1588C60.7733 56.6223 59.0943 58.7535 56.7623 59.2032L43.7403 61.6863C43.3859 61.7645 43.0314 61.5103 42.9568 61.1193C42.9008 60.7478 43.1433 60.3959 43.4978 60.3177Z" fill="#353535"/>
<path d="M59.0184 49.9357L60.9959 49.9162L60.9213 38.7324H58.9624L59.0184 49.9357Z" fill="#353535"/>
<path d="M40.2461 58.8136C38.3299 59.1112 36.9554 60.6167 37.1759 62.1762C37.3965 63.7358 39.1286 64.7588 41.0447 64.4611C42.9608 64.1635 44.3354 62.658 44.1149 61.0985C43.8943 59.539 42.1622 58.516 40.2461 58.8136Z" fill="#353535"/>
<path d="M59.1617 15.6723C57.8017 10.5798 54.4584 6.61237 49.2262 3.9082C44.6173 1.51986 38.6673 0.217123 31.6974 0C24.7274 0.197384 18.7963 1.51986 14.1685 3.9082C8.93635 6.61237 5.59303 10.5798 4.23304 15.6723C2.40083 22.5413 4.38415 34.6409 4.45971 35.1344L6.74525 34.6804C6.72636 34.562 4.78081 22.6597 6.46192 16.3829C7.63302 12.0207 10.5608 8.58621 15.1508 6.19786C19.4196 3.98716 25.1241 2.7239 31.6785 2.54625C38.2329 2.74364 43.9373 4.0069 48.2062 6.19786C52.815 8.58621 55.7428 12.001 56.895 16.3829C58.5761 22.6597 56.6306 34.562 56.6117 34.6804L58.8972 35.1344C59.0106 34.6409 60.9939 22.5413 59.1617 15.6723Z" fill="#353535"/>
<path d="M5.58849 44.9544L1.76399 43.8009C1.14834 43.6053 0.681938 43.0383 0.62597 42.3736L0.0103209 36.4297C-0.0643035 35.7454 0.271499 35.1002 0.831182 34.7678L4.31987 32.7931L5.58849 44.9544Z" fill="#353535"/>
<path d="M6.20534 28.7454C4.3957 28.9409 3.07113 30.6615 3.27634 32.558L4.60092 45.4038C4.78748 47.3003 6.42922 48.6885 8.23886 48.4734C10.0485 48.2779 11.3731 46.5573 11.1679 44.6608L9.84328 31.8151C9.65672 29.9185 8.03364 28.5499 6.20534 28.7454Z" fill="#353535"/>
<path d="M6.54052 28.7265C6.42858 28.7265 6.31665 28.7265 6.22337 28.7461C6.01815 28.7656 5.83158 28.8047 5.64502 28.8634L7.65989 48.4936C7.84645 48.5132 8.05166 48.5132 8.23822 48.4936C8.35016 48.4741 8.4621 48.4545 8.55538 48.435L6.54052 28.7265Z" fill="#353535"/>
<path d="M59.4116 44.9547L63.2361 43.8012C63.8518 43.6057 64.3182 43.0386 64.3741 42.3739L64.9898 36.43C65.0644 35.7457 64.7286 35.1005 64.1689 34.7681L60.6802 32.7934L59.4116 44.9547Z" fill="#353535"/>
<path d="M58.777 28.7484C60.5866 28.9439 61.9112 30.6645 61.706 32.561L60.3814 45.4067C60.1948 47.3033 58.5531 48.6915 56.7434 48.4764C54.9338 48.2809 53.6092 46.5603 53.8144 44.6637L55.139 31.818C55.3442 29.9215 56.9673 28.5528 58.777 28.7484Z" fill="#353535"/>
<path d="M58.4592 28.7265C58.5711 28.7265 58.6831 28.7265 58.7763 28.7461C58.9816 28.7656 59.1681 28.8047 59.3547 28.8634L57.3398 48.4936C57.1533 48.5132 56.948 48.5132 56.7615 48.4936C56.6495 48.4741 56.5376 48.4545 56.4443 48.435L58.4592 28.7265Z" fill="#353535"/>
</svg>
