<svg width="30" height="30" viewBox="0 0 30 30" fill="none" xmlns="http://www.w3.org/2000/svg">
<path d="M14.4673 6.61529C14.5466 6.53772 14.6545 6.47365 14.7692 6.49051C14.8704 6.49388 14.953 6.56471 15.0221 6.63047C17.6072 9.32512 20.1922 12.0164 22.7773 14.7094C22.8734 14.8072 22.9897 14.9134 22.9982 15.0601C23.0167 15.2473 22.843 15.426 22.6559 15.4058C22.5479 15.4058 22.4586 15.3316 22.3861 15.2608C22.0522 14.9117 21.7183 14.5644 21.3827 14.2153C21.3827 17.168 21.3827 20.1206 21.3827 23.0733H8.09156C8.09156 20.1206 8.09156 17.168 8.09156 14.2153C7.75094 14.5694 7.412 14.9218 7.07306 15.2776C6.99718 15.3502 6.89769 15.4159 6.78808 15.4058C6.61271 15.4075 6.45757 15.2372 6.47612 15.0618C6.47612 14.964 6.5402 14.8797 6.60259 14.8089C9.22305 12.0771 11.8469 9.34705 14.4673 6.61529ZM8.86725 13.4093C8.82678 13.4582 8.75427 13.4986 8.75764 13.5711C8.75595 16.5171 8.75764 19.463 8.75595 22.4089C9.97512 22.4122 11.1926 22.4122 12.4118 22.4089C12.4084 20.0835 12.4101 17.7598 12.4101 15.4345C13.9615 15.4345 15.5111 15.4345 17.0608 15.4345C17.0608 17.7598 17.0608 20.0852 17.0608 22.4106C18.2783 22.4139 19.4975 22.4122 20.715 22.4122C20.715 19.4663 20.715 16.5187 20.715 13.5728C20.72 13.5088 20.6576 13.47 20.6205 13.4261C18.6594 11.3824 16.7 9.33693 14.7371 7.29486C12.7794 9.33187 10.8233 11.3723 8.86725 13.4093ZM13.0762 16.0989C13.0745 18.2016 13.0779 20.3044 13.0745 22.4072C14.1824 22.4106 15.2919 22.4139 16.3998 22.4055C16.3947 20.3027 16.3998 18.1999 16.3964 16.0989C15.2902 16.0989 14.184 16.0989 13.0762 16.0989ZM18.0591 8.12619C18.7235 8.1245 19.3879 8.12619 20.0523 8.12619C20.0523 9.15313 20.0523 10.1784 20.0523 11.2053C19.8398 10.9861 19.6256 10.7669 19.4132 10.546C19.3761 10.5156 19.3896 10.465 19.3862 10.4246C19.3879 9.87991 19.3879 9.33693 19.3862 8.79226C19.1653 8.79226 18.9427 8.79226 18.7218 8.79226C18.7201 9.13458 18.7218 9.47689 18.7218 9.8192C18.4992 9.59155 18.2817 9.36054 18.0591 9.13458C18.0574 8.79564 18.0608 8.46007 18.0591 8.12619Z" fill="#353535"/>
<circle cx="15" cy="15" r="14.5" stroke="#353535"/>
</svg>
