<svg width="65" height="80" viewBox="0 0 65 80" fill="none" xmlns="http://www.w3.org/2000/svg">
<path d="M44.632 61.1755L42.5449 64.4327C53.7296 65.5102 60.4833 68.2449 60.4833 70.2612C60.4833 72.8327 49.5768 76.5714 32.4839 76.5714C15.3911 76.5714 4.49531 72.8327 4.49531 70.2612C4.49531 67.8694 13.914 64.4898 28.9519 64.0163L32.4839 69.4612L56.7586 32.0571H56.7265C59.124 28.9061 60.5154 25.2653 60.5154 21.3714C60.5154 9.56735 47.9713 0 32.4946 0C17.0179 0 4.4739 9.56735 4.4739 21.3714C4.4739 25.2653 5.86531 28.9061 8.2521 32.0571H8.23069L26.7899 60.6612C12.7153 61.3551 0 64.6204 0 70.2531C0 76.6531 16.3437 80 32.4946 80C48.6456 80 65 76.6531 65 70.2612C64.9893 65.4939 55.9238 62.4327 44.632 61.1755ZM20.7212 18.7429C20.7212 13.7878 25.9872 9.76327 32.4946 9.76327C39.0021 9.76327 44.2681 13.7878 44.2681 18.7429C44.2681 23.698 39.0021 27.7143 32.4946 27.7143C25.9979 27.7143 20.7212 23.698 20.7212 18.7429Z" fill="#353535"/>
</svg>
