<svg width="38" height="68" viewBox="0 0 38 68" fill="none" xmlns="http://www.w3.org/2000/svg">
<path d="M5.27821 0.12294C4.13585 0.474174 3.08146 1.42615 2.51027 2.62763L2.12948 3.43319L2.0855 21.4032L2.0415 39.3875H2.46628C3.2423 39.3875 4.37023 39.8268 5.26378 40.4859L6.15733 41.1451V23.6439V6.14271H19.1915H32.2256V20.3336C32.2256 33.075 32.2551 34.5837 32.46 35.0813C32.5919 35.4037 32.7383 35.9453 32.7968 36.3117C32.8847 36.9117 32.9287 36.9708 33.2504 36.9268C33.4552 36.8973 34.188 36.8389 34.9055 36.7949L36.1799 36.7213L36.1503 19.9233L36.1063 3.1397L35.7111 2.39256C35.4912 1.98221 35.008 1.36703 34.6423 1.04536C33.3831 -0.0674553 34.2175 -0.00902939 19.133 0.00540543C11.7076 0.00609207 5.48304 0.0645142 5.27821 0.12294ZM22.3251 2.4228C22.589 2.68605 22.6034 2.7596 22.413 3.06753C22.2962 3.24349 21.7683 3.28748 19.3227 3.31635C16.2764 3.34521 15.8228 3.28679 15.8228 2.77472C15.8228 2.27639 16.262 2.20353 19.2203 2.1891C21.6515 2.18841 22.1347 2.21728 22.3251 2.4228Z" fill="#353535"/>
<path d="M12.161 18.5912C11.341 18.972 10.7698 19.5136 10.3595 20.2752L10.0371 20.8608L9.99315 34.9789L9.96359 49.0825L8.52842 46.6953C6.09728 42.6242 5.62851 42.053 4.29574 41.4818C3.2118 41.0282 1.30785 41.4963 0.619822 42.3898C-0.244171 43.4738 -0.200182 45.1722 0.722235 47.0913C1.98145 49.7272 7.57644 59.7446 9.74364 63.2597C10.8125 64.9877 11.8235 66.0716 12.8044 66.5548C14.2698 67.258 15.5146 67.3604 23.2039 67.3604H30.263L31.0245 66.9796C33.1917 65.8957 35.0517 63.2013 35.9013 59.9206C36.2676 58.4703 37.7908 44.1178 37.7908 42.0386C37.7908 40.8673 37.41 40.1346 36.4876 39.5346C34.5836 38.3194 31.8892 38.861 31.1276 40.6185C30.9668 40.9849 30.9372 40.8234 30.8493 39.2273C30.7317 37.2065 30.6005 36.6058 30.0733 35.9027C29.5461 35.1995 28.7405 34.8483 27.6421 34.8483C26.0454 34.8483 24.7278 35.5514 24.2446 36.6642L24.0542 37.089L23.9518 36.2979C23.7909 35.0971 23.3221 33.9987 22.707 33.3835C21.2278 31.9044 18.3575 32.446 17.3319 34.3939L16.9951 35.0387V28.1989C16.9951 23.747 16.9367 21.1399 16.8343 20.7295C16.3642 18.8695 13.9481 17.7561 12.161 18.5912Z" fill="#353535"/>
</svg>
