<svg width="20" height="20" viewBox="0 0 20 20" fill="none" xmlns="http://www.w3.org/2000/svg">
<path d="M10.0022 10.9082C7.24115 10.9082 5.00111 8.87347 5.00111 6.36327C5.00111 3.85306 7.24115 1.81837 10.0022 1.81837C12.7633 1.81837 15.0033 3.85306 15.0033 6.36327C15.0033 8.87551 12.7633 10.9082 10.0022 10.9082ZM10.0022 0C6.13672 0 3.00156 2.84898 3.00156 6.36531C3.00156 9.87959 6.13449 12.7286 10.0022 12.7286C13.87 12.7286 17.0029 9.87959 17.0029 6.36531C17.0029 2.84898 13.8677 0 10.0022 0ZM10.0022 10.9082C4.47784 10.9082 0 14.9796 0 20H1.99955C1.99955 15.9837 5.58228 12.7286 10 12.7286C14.4177 12.7286 18.0004 15.9857 18.0004 20H20C20.0045 14.9796 15.5266 10.9082 10.0022 10.9082Z" fill="#353535"/>
<line x1="1" y1="19" x2="19" y2="19" stroke="#353535" stroke-width="2"/>
</svg>
