<svg width="25" height="16" viewBox="0 0 25 16" fill="none" xmlns="http://www.w3.org/2000/svg">
<path d="M10.675 4.04L6.655 14H4.96L0.94 4.04H2.41C2.58 4.04 2.71 4.08 2.8 4.16C2.9 4.23 2.98 4.325 3.04 4.445L5.41 10.64C5.49 10.84 5.56 11.055 5.62 11.285C5.69 11.505 5.765 11.74 5.845 11.99C5.935 11.47 6.06 11.02 6.22 10.64L8.575 4.445C8.615 4.335 8.685 4.24 8.785 4.16C8.895 4.08 9.03 4.04 9.19 4.04H10.675ZM13.5794 14H11.7194V4.04H13.5794V14ZM19.0613 9.05C19.7513 9.05 20.2613 8.885 20.5913 8.555C20.9313 8.215 21.1013 7.76 21.1013 7.19C21.1013 6.62 20.9313 6.185 20.5913 5.885C20.2613 5.575 19.7513 5.42 19.0613 5.42H17.6513V9.05H19.0613ZM19.0613 4.04C19.7313 4.04 20.3113 4.115 20.8013 4.265C21.2913 4.415 21.6913 4.63 22.0013 4.91C22.3213 5.19 22.5563 5.525 22.7063 5.915C22.8663 6.295 22.9463 6.72 22.9463 7.19C22.9463 7.67 22.8663 8.11 22.7063 8.51C22.5463 8.91 22.3013 9.26 21.9713 9.56C21.6513 9.85 21.2463 10.075 20.7563 10.235C20.2763 10.395 19.7113 10.475 19.0613 10.475H17.6513V14H15.8063V4.04H19.0613Z" fill="#353535"/>
</svg>
