<svg width="29" height="25" viewBox="0 0 29 25" fill="none" xmlns="http://www.w3.org/2000/svg">
<rect width="29" height="25" rx="5" fill="#353535"/>
<mask id="path-2-inside-1_294_2" fill="white">
<path d="M14.5 5C14.7066 5 14.8842 5.07347 15.0296 5.22041C15.1765 5.36582 15.25 5.54337 15.25 5.75V11.75H21.25C21.4566 11.75 21.6342 11.8235 21.7796 11.9704C21.925 12.1173 22 12.2934 22 12.5C22 12.7066 21.9265 12.8842 21.7796 13.0296C21.6327 13.1765 21.4566 13.25 21.25 13.25H15.25V19.25C15.25 19.4566 15.1765 19.6342 15.0296 19.7796C14.8827 19.9265 14.7066 20 14.5 20C14.2934 20 14.1158 19.9265 13.9704 19.7796C13.825 19.6327 13.75 19.4566 13.75 19.25V13.25H7.75C7.54337 13.25 7.36582 13.1765 7.22041 13.0296C7.07347 12.8842 7 12.7066 7 12.5C7 12.2934 7.07347 12.1158 7.22041 11.9704C7.36735 11.825 7.54337 11.75 7.75 11.75H13.75V5.75C13.75 5.54337 13.8235 5.36582 13.9704 5.22041C14.1173 5.075 14.2934 5 14.5 5Z"/>
</mask>
<path d="M14.5 5C14.7066 5 14.8842 5.07347 15.0296 5.22041C15.1765 5.36582 15.25 5.54337 15.25 5.75V11.75H21.25C21.4566 11.75 21.6342 11.8235 21.7796 11.9704C21.925 12.1173 22 12.2934 22 12.5C22 12.7066 21.9265 12.8842 21.7796 13.0296C21.6327 13.1765 21.4566 13.25 21.25 13.25H15.25V19.25C15.25 19.4566 15.1765 19.6342 15.0296 19.7796C14.8827 19.9265 14.7066 20 14.5 20C14.2934 20 14.1158 19.9265 13.9704 19.7796C13.825 19.6327 13.75 19.4566 13.75 19.25V13.25H7.75C7.54337 13.25 7.36582 13.1765 7.22041 13.0296C7.07347 12.8842 7 12.7066 7 12.5C7 12.2934 7.07347 12.1158 7.22041 11.9704C7.36735 11.825 7.54337 11.75 7.75 11.75H13.75V5.75C13.75 5.54337 13.8235 5.36582 13.9704 5.22041C14.1173 5.075 14.2934 5 14.5 5Z" fill="#FFC412"/>
<path d="M15.0296 5.22041L12.8972 7.33059L12.9082 7.34176L12.9194 7.35281L15.0296 5.22041ZM15.25 11.75H12.25V14.75H15.25V11.75ZM21.7796 13.0296L19.6694 10.8972L19.6638 10.9027L19.6583 10.9083L21.7796 13.0296ZM15.25 13.25V10.25H12.25V13.25H15.25ZM15.0296 19.7796L12.9194 17.6472L12.9138 17.6527L12.9083 17.6583L15.0296 19.7796ZM13.75 13.25H16.75V10.25H13.75V13.25ZM7.22041 13.0296L9.35281 10.9194L9.34176 10.9082L9.33059 10.8972L7.22041 13.0296ZM13.75 11.75V14.75H16.75V11.75H13.75ZM14.5 8C14.2406 8 13.9418 7.95227 13.6365 7.8254C13.3308 7.69835 13.0836 7.51893 12.8972 7.33059L17.162 3.11022C16.4487 2.38941 15.5014 2 14.5 2V8ZM12.9194 7.35281C12.7311 7.16643 12.5516 6.91924 12.4246 6.61354C12.2977 6.30825 12.25 6.00941 12.25 5.75H18.25C18.25 4.74856 17.8606 3.80131 17.1398 3.08801L12.9194 7.35281ZM12.25 5.75V11.75H18.25V5.75H12.25ZM15.25 14.75H21.25V8.75H15.25V14.75ZM21.25 14.75C20.9906 14.75 20.6918 14.7023 20.3865 14.5754C20.0808 14.4484 19.8336 14.2689 19.6472 14.0806L23.912 9.86022C23.1987 9.13941 22.2514 8.75 21.25 8.75V14.75ZM19.6472 14.0806C19.4757 13.9073 19.3027 13.6714 19.1771 13.3714C19.0507 13.0695 19 12.7686 19 12.5H25C25 11.4757 24.5936 10.549 23.912 9.86022L19.6472 14.0806ZM19 12.5C19 12.2406 19.0477 11.9418 19.1746 11.6365C19.3016 11.3308 19.4811 11.0836 19.6694 10.8972L23.8898 15.162C24.6106 14.4487 25 13.5014 25 12.5H19ZM19.6583 10.9083C19.8368 10.7298 20.0785 10.5526 20.3838 10.4255C20.6896 10.2981 20.9895 10.25 21.25 10.25V16.25C22.2607 16.25 23.1973 15.8545 23.9009 15.1509L19.6583 10.9083ZM21.25 10.25H15.25V16.25H21.25V10.25ZM12.25 13.25V19.25H18.25V13.25H12.25ZM12.25 19.25C12.25 18.9906 12.2977 18.6918 12.4246 18.3865C12.5516 18.0808 12.7311 17.8336 12.9194 17.6472L17.1398 21.912C17.8606 21.1987 18.25 20.2514 18.25 19.25H12.25ZM12.9083 17.6583C13.0868 17.4798 13.3285 17.3026 13.6338 17.1755C13.9396 17.0481 14.2395 17 14.5 17V23C15.5107 23 16.4473 22.6045 17.1509 21.9009L12.9083 17.6583ZM14.5 17C14.7594 17 15.0582 17.0477 15.3635 17.1746C15.6692 17.3016 15.9164 17.4811 16.1028 17.6694L11.838 21.8898C12.5513 22.6106 13.4986 23 14.5 23V17ZM16.1028 17.6694C16.2743 17.8427 16.4473 18.0786 16.5729 18.3786C16.6993 18.6805 16.75 18.9814 16.75 19.25H10.75C10.75 20.2743 11.1564 21.201 11.838 21.8898L16.1028 17.6694ZM16.75 19.25V13.25H10.75V19.25H16.75ZM13.75 10.25H7.75V16.25H13.75V10.25ZM7.75 10.25C8.00941 10.25 8.30825 10.2977 8.61354 10.4246C8.91924 10.5516 9.16643 10.7311 9.35281 10.9194L5.08801 15.1398C5.80131 15.8606 6.74856 16.25 7.75 16.25V10.25ZM9.33059 10.8972C9.51893 11.0836 9.69835 11.3308 9.8254 11.6365C9.95227 11.9418 10 12.2406 10 12.5H4C4 13.5014 4.38941 14.4487 5.11022 15.162L9.33059 10.8972ZM10 12.5C10 12.7594 9.95227 13.0582 9.8254 13.3635C9.69835 13.6692 9.51894 13.9164 9.33059 14.1028L5.11022 9.83801C4.38941 10.5513 4 11.4986 4 12.5H10ZM9.33059 14.1028C9.15732 14.2743 8.92137 14.4473 8.62135 14.5729C8.31953 14.6993 8.01864 14.75 7.75 14.75V8.75C6.72568 8.75 5.79901 9.1564 5.11022 9.83801L9.33059 14.1028ZM7.75 14.75H13.75V8.75H7.75V14.75ZM16.75 11.75V5.75H10.75V11.75H16.75ZM16.75 5.75C16.75 6.00941 16.7023 6.30825 16.5754 6.61354C16.4484 6.91923 16.2689 7.16642 16.0806 7.35281L11.8602 3.08801C11.1394 3.80131 10.75 4.74856 10.75 5.75H16.75ZM16.0806 7.35281C15.9073 7.52427 15.6714 7.69735 15.3714 7.82295C15.0695 7.94931 14.7686 8 14.5 8V2C13.4757 2 12.549 2.4064 11.8602 3.08801L16.0806 7.35281Z" fill="#FFC412" mask="url(#path-2-inside-1_294_2)"/>
</svg>
