<svg width="22" height="22" viewBox="0 0 22 22" fill="none" xmlns="http://www.w3.org/2000/svg">
<path d="M10.6735 1.15375C10.7695 1.06021 10.9001 0.982941 11.0389 1.00328C11.1613 1.00734 11.2613 1.09275 11.345 1.17205C14.4737 4.42147 17.6023 7.66682 20.731 10.9142C20.8473 11.0321 20.9881 11.1602 20.9984 11.3372C21.0208 11.5629 20.8106 11.7784 20.5841 11.754C20.4534 11.754 20.3453 11.6645 20.2575 11.5791C19.8534 11.1582 19.4493 10.7393 19.0432 10.3184C19.0432 13.8789 19.0432 17.4395 19.0432 21H2.95699C2.95699 17.4395 2.95699 13.8789 2.95699 10.3184C2.54473 10.7454 2.13451 11.1704 1.7243 11.5995C1.63246 11.6869 1.51205 11.7662 1.37939 11.754C1.16714 11.756 0.979378 11.5507 1.00183 11.3392C1.00183 11.2212 1.07938 11.1196 1.15489 11.0342C4.32642 7.74002 7.50202 4.4479 10.6735 1.15375ZM3.89579 9.34643C3.84681 9.4054 3.75905 9.4542 3.76314 9.54164C3.76109 13.094 3.76314 16.6464 3.76109 20.1988C5.23665 20.2029 6.71016 20.2029 8.18572 20.1988C8.18164 17.3947 8.18368 14.5927 8.18368 11.7886C10.0613 11.7886 11.9369 11.7886 13.8124 11.7886C13.8124 14.5927 13.8124 17.3968 13.8124 20.2009C15.2859 20.2049 16.7615 20.2029 18.235 20.2029C18.235 16.6505 18.235 13.0961 18.235 9.54367C18.2411 9.4664 18.1656 9.41963 18.1207 9.36676C15.7472 6.90225 13.3757 4.4357 11.0001 1.97322C8.63063 4.4296 6.26321 6.89005 3.89579 9.34643ZM8.98982 12.5897C8.98778 15.1254 8.99186 17.6611 8.98778 20.1968C10.3286 20.2009 11.6715 20.2049 13.0124 20.1948C13.0063 17.6591 13.0124 15.1234 13.0083 12.5897C11.6695 12.5897 10.3307 12.5897 8.98982 12.5897ZM15.0206 2.9757C15.8247 2.97367 16.6288 2.9757 17.4329 2.9757C17.4329 4.21406 17.4329 5.45038 17.4329 6.68874C17.1758 6.42439 16.9166 6.16005 16.6594 5.89367C16.6145 5.85707 16.6309 5.79606 16.6268 5.74726C16.6288 5.09047 16.6288 4.4357 16.6268 3.7789C16.3594 3.7789 16.09 3.7789 15.8227 3.7789C15.8206 4.19169 15.8227 4.60448 15.8227 5.01726C15.5533 4.74275 15.29 4.46417 15.0206 4.19169C15.0186 3.78297 15.0227 3.37832 15.0206 2.9757Z" fill="#353535" stroke="#353535" stroke-width="0.5"/>
</svg>
