<svg width="216" height="216" viewBox="0 0 216 216" fill="none" xmlns="http://www.w3.org/2000/svg">
<path d="M108 0C48.3575 0 0 48.3575 0 108C0 167.642 48.3575 216 108 216C167.642 216 216 167.642 216 108C216 48.3575 167.642 0 108 0ZM108 204.164C54.8816 204.164 11.8359 161.118 11.8359 108C11.8359 54.8816 54.8816 11.8359 108 11.8359C161.118 11.8359 204.164 54.8816 204.164 108C204.164 161.118 161.118 204.164 108 204.164Z" fill="#C4C4C4"/>
<path d="M174.954 67.7939H98.4697C98.8486 67.1381 99.0672 66.3803 99.0672 65.5641V61.1045C99.0672 58.6415 97.0706 56.6449 94.6076 56.6449H58.9015C56.4385 56.6449 54.4419 58.6415 54.4419 61.1045V65.5641C54.4419 66.3803 54.6605 67.1381 55.0394 67.7939H41.0485C38.5855 67.7939 36.5889 69.7906 36.5889 72.2536V154.829C36.5889 157.292 38.5855 159.289 41.0485 159.289H174.954C177.417 159.289 179.413 157.292 179.413 154.829V72.2536C179.413 69.7906 177.417 67.7939 174.954 67.7939ZM108.001 150.355C88.2825 150.355 72.295 134.368 72.295 114.649C72.295 94.9306 88.2825 78.943 108.001 78.943C127.72 78.943 143.707 94.9306 143.707 114.649C143.707 134.382 127.72 150.355 108.001 150.355ZM155.978 94.5662C151.664 94.5662 148.167 91.0685 148.167 86.7546C148.167 82.4407 151.664 78.943 155.978 78.943C160.292 78.943 163.79 82.4407 163.79 86.7546C163.79 91.0685 160.292 94.5662 155.978 94.5662ZM108.001 94.5662C96.9103 94.5662 87.9182 103.558 87.9182 114.649C87.9182 125.74 96.9103 134.732 108.001 134.732C119.092 134.732 128.084 125.74 128.084 114.649C128.084 103.558 119.092 94.5662 108.001 94.5662Z" fill="#C4C4C4"/>
<line x1="181.891" y1="41.4917" x2="40.8298" y2="182.553" stroke="#C4C4C4" stroke-width="12"/>
</svg>
