<svg width="50" height="50" viewBox="0 0 50 50" fill="none" xmlns="http://www.w3.org/2000/svg">
<path d="M3.01599 50C2.00569 50 1.06172 49.4901 0.495341 48.6386C-0.0608342 47.7922 -0.15268 46.7316 0.240214 45.7934L5.72542 32.8676C5.81727 32.6535 5.94483 32.4597 6.11322 32.2966L36.0293 2.39649C37.5754 0.85152 39.6317 0 41.8156 0C43.9994 0 46.0558 0.85152 47.6018 2.39649C49.1479 3.94146 50 5.99633 50 8.17867C50 10.361 49.1479 12.4159 47.6018 13.9608L17.6857 43.866C17.5225 44.0292 17.3286 44.1617 17.1194 44.2484L4.20998 49.7553C3.82729 49.9133 3.42929 50 3.01599 50ZM8.9145 34.6013L4.14364 45.8546L15.3794 41.0616L45.0506 11.4114C45.9129 10.5497 46.3874 9.40241 46.3874 8.18377C46.3874 6.96512 45.9129 5.81787 45.0506 4.95615C44.1882 4.09443 43.0402 3.62023 41.8207 3.62023C40.6012 3.62023 39.4531 4.09443 38.5908 4.95615L8.9145 34.6013Z" fill="#353535"/>
<path d="M8.65939 31.5571L17.8899 40.7811L15.3335 43.3356L6.10303 34.1117L8.65939 31.5571Z" fill="#353535"/>
<path d="M36.8508 3.38574L46.0813 12.6097L43.5249 15.1642L34.2944 5.9403L36.8508 3.38574Z" fill="#353535"/>
</svg>
