<svg width="26" height="39" viewBox="0 0 26 39" fill="none" xmlns="http://www.w3.org/2000/svg">
<path d="M24.7897 37.9057C25.5649 37.2123 26 36.2749 26 35.2974C26 34.32 25.5649 33.3825 24.7897 32.6892L10.0552 19.4075L24.7897 6.31083C25.5649 5.61767 26 4.68 26 3.70259C26 2.72519 25.5649 1.78751 24.7897 1.09435C24.4027 0.747585 23.9423 0.472369 23.4351 0.284539C22.9279 0.0967084 22.3839 0 21.8344 0C21.285 0 20.741 0.0967084 20.2336 0.284539C19.7267 0.472369 19.2663 0.747585 18.8792 1.09435L1.2312 16.7808C0.841196 17.1248 0.531525 17.534 0.320082 17.9846C0.108639 18.4356 0 18.9191 0 19.4075C0 19.8958 0.108639 20.3794 0.320082 20.8304C0.531525 21.281 0.841196 21.6902 1.2312 22.0342L18.8792 37.9057C19.2663 38.2523 19.7267 38.5276 20.2336 38.7155C20.741 38.9034 21.285 39 21.8344 39C22.3839 39 22.9279 38.9034 23.4351 38.7155C23.9423 38.5276 24.4027 38.2523 24.7897 37.9057Z" fill="#353535" fill-opacity="0.2"/>
</svg>
