<svg width="30" height="30" viewBox="0 0 30 30" fill="none" xmlns="http://www.w3.org/2000/svg">
<path d="M9.07392 0.0974464C6.79881 0.414003 4.75818 1.42996 3.12195 3.0657C1.5053 4.67512 0.520808 6.58159 0.10999 8.90341C-0.0332765 9.74126 -0.0400113 11.4758 0.10999 12.3335C0.866423 16.7529 4.0541 20.0972 8.43504 21.0537C9.02831 21.1791 9.30872 21.1989 10.4885 21.1989C11.649 21.1989 11.9555 21.1791 12.5224 21.0537C13.8978 20.7501 15.1692 20.2226 16.2449 19.4969L16.7925 19.1342L16.8577 19.3321C16.8902 19.4377 16.975 19.5564 17.0402 19.5892C17.1314 19.6354 17.1639 19.754 17.1838 20.13C17.1966 20.4534 17.2554 20.7105 17.3466 20.9084C17.451 21.1261 18.6636 22.3859 21.7472 25.4994C25.7761 29.5694 26.0237 29.8067 26.3562 29.9123C26.793 30.0576 27.3991 30.0179 27.7643 29.8265C27.9079 29.754 28.4228 29.2792 28.9181 28.7777C29.7395 27.9398 29.8114 27.8345 29.9155 27.4783C29.9871 27.2212 30.0131 26.9772 29.9938 26.7659C29.909 26.047 29.9547 26.0997 25.5281 21.6143C20.8931 16.918 21.0498 17.0564 20.189 17.0431C19.7849 17.0431 19.7065 17.0233 19.6021 16.8913C19.5369 16.8056 19.4001 16.7331 19.3021 16.7331C19.2045 16.7266 19.1261 16.7067 19.1261 16.6934C19.1261 16.6801 19.2565 16.4627 19.4194 16.1988C20.0197 15.216 20.489 14.0287 20.763 12.7622C20.9326 11.9971 21.0042 10.1105 20.8934 9.27944C20.1238 3.42191 14.8174 -0.693945 9.07392 0.0974464ZM12.1183 2.64384C15.2411 3.28376 17.6987 5.79019 18.3899 9.03567C18.5335 9.73476 18.5528 11.4105 18.4159 12.103C17.7706 15.4139 15.3127 17.9271 12.0207 18.6395C11.2578 18.8043 9.72597 18.8043 8.95668 18.6395C7.28769 18.2898 5.99033 17.5842 4.81053 16.3902C3.57164 15.1435 2.82868 13.7122 2.53511 12.0433C2.41113 11.3045 2.41113 9.94569 2.53511 9.22678C3.2196 5.22275 6.80523 2.29414 10.7821 2.47874C11.1602 2.49857 11.7599 2.57104 12.1183 2.64384Z" fill="#353535"/>
</svg>
