<svg width="65" height="65" viewBox="0 0 65 65" fill="none" xmlns="http://www.w3.org/2000/svg">
<path d="M52.3263 65C51.8156 65 51.3115 64.8294 50.8804 64.5032L34.5371 52.1123L25.7685 59.1642C25.0787 59.7204 24.1966 59.8538 23.394 59.535C22.5981 59.2161 21.9945 58.4746 21.7756 57.5625L17.378 38.9132L1.65162 32.1876C0.663333 31.765 0.00668362 30.7046 5.08028e-05 29.5182C-0.00658201 28.3317 0.636801 27.2639 1.61846 26.8264L61.4199 0.228018C61.6919 0.10196 61.9771 0.0278071 62.2689 0.00556142C62.3751 -0.00185381 62.4746 -0.00185381 62.5807 0.00556142C63.1776 0.0426375 63.768 0.317001 64.2323 0.821236C64.2787 0.873143 64.3251 0.925049 64.3649 0.984371C64.743 1.47378 64.9552 2.06699 64.995 2.66763C65.0017 2.81593 65.0017 2.97165 64.995 3.12737C64.9884 3.2386 64.9751 3.34983 64.9552 3.45364L54.8534 62.6642C54.6943 63.6134 54.1106 64.4142 53.3146 64.785C52.9963 64.9258 52.6646 65 52.3263 65ZM35.9765 46.2469L50.5355 57.2882L58.3887 11.2174L30.0202 41.731L35.9035 46.195C35.93 46.2098 35.9499 46.2247 35.9765 46.2469ZM23.8583 43.7925L25.8017 52.0456L30.0003 48.6643L24.5017 44.4969C24.2496 44.3041 24.0307 44.0668 23.8583 43.7925ZM9.6508 29.4514L20.449 34.0637C21.2251 34.3974 21.8088 35.1241 22.021 36.0139L23.3874 41.82C23.4471 41.1526 23.719 40.5223 24.1634 40.0478L51.1921 10.9727L9.6508 29.4514Z" fill="#353535"/>
</svg>
