<svg width="36" height="40" viewBox="0 0 36 40" fill="none" xmlns="http://www.w3.org/2000/svg">
<path d="M26.9508 2.22041H33.3154C34.7088 2.22041 35.8033 3.21633 35.8033 4.44082V6.66122H0.393433V4.44082C0.393433 3.20408 1.50631 2.22041 2.88132 2.22041H9.24589C9.24589 0.983674 10.3634 0 11.743 0H24.4491C25.8425 0 26.9508 0.995918 26.9508 2.22041ZM2.92271 8.8898V34.2939C2.92271 37.4449 5.83367 40 9.36086 40H26.8358C30.3906 40 33.274 37.4531 33.274 34.2939V8.8898H2.92271Z" fill="#353535"/>
<path d="M10.1757 16.8201C9.94521 17.0139 9.82477 17.2531 9.81781 17.5349C9.80752 17.8167 9.91314 18.0613 10.1314 18.2659L16.4701 24.2062L9.77725 29.8322C9.54676 30.026 9.42632 30.2652 9.41935 30.547C9.41239 30.8288 9.51468 31.0734 9.73298 31.278C9.95127 31.4826 10.2208 31.5895 10.5383 31.5957C10.8575 31.6034 11.1314 31.5111 11.3619 31.3173L18.0547 25.6913L24.3934 31.6317C24.6117 31.8362 24.8812 31.9431 25.1987 31.9493C25.5179 31.957 25.7918 31.8647 26.0223 31.671C26.2528 31.4772 26.3733 31.238 26.3802 30.9562C26.3872 30.6743 26.2849 30.4297 26.0666 30.2252L19.728 24.2848L26.4208 18.6589C26.6513 18.4651 26.7717 18.2259 26.7787 17.9441C26.789 17.6623 26.6834 17.4177 26.4651 17.2131C26.2468 17.0085 25.9772 16.9016 25.6597 16.8954C25.3422 16.8892 25.0666 16.98 24.8361 17.1738L18.1433 22.7998L11.8046 16.8594C11.5863 16.6548 11.3168 16.5479 10.9993 16.5418C10.6818 16.5356 10.4062 16.6264 10.1757 16.8201Z" fill="white"/>
</svg>
