<svg width="32" height="32" viewBox="0 0 32 32" fill="none" xmlns="http://www.w3.org/2000/svg">
<path d="M30.7429 9.77306C29.9363 7.86939 28.7837 6.1551 27.3143 4.68571C25.8449 3.21633 24.1339 2.06367 22.2269 1.25714C20.2547 0.42449 18.1584 0 16 0C13.8416 0 11.7453 0.42449 9.77306 1.25714C7.86939 2.06367 6.1551 3.21633 4.68571 4.68571C3.21633 6.1551 2.06367 7.86612 1.25714 9.77306C0.42449 11.7453 0 13.8416 0 16C0 18.1584 0.42449 20.2547 1.25714 22.2269C2.06367 24.1339 3.21633 25.8449 4.68571 27.3143C6.1551 28.7837 7.86612 29.9363 9.77306 30.7429C11.7453 31.5755 13.8416 32 16 32C18.1584 32 20.2547 31.5755 22.2269 30.7429C24.1306 29.9363 25.8449 28.7837 27.3143 27.3143C28.7837 25.8449 29.9363 24.1339 30.7429 22.2269C31.5755 20.2547 32 18.1584 32 16C32 13.8416 31.5755 11.7453 30.7429 9.77306ZM16.0294 17.8612C12.898 17.8612 10.3478 15.311 10.3478 12.1796C10.3478 9.04816 12.8947 6.49796 16.0294 6.49796C19.1641 6.49796 21.711 9.0449 21.711 12.1796C21.711 15.311 19.1608 17.8612 16.0294 17.8612ZM9.90041 21.6C11.6506 20.209 13.7633 19.4743 16.0033 19.4743C18.2433 19.4743 20.3494 20.209 22.0996 21.5967C23.7682 22.9192 24.9731 24.7706 25.5053 26.818C24.3429 27.8433 23.0302 28.6694 21.6033 29.2702C19.8302 30.0212 17.9461 30.4 16 30.4C14.0539 30.4 12.1698 30.018 10.3967 29.2702C8.97306 28.6661 7.66041 27.8433 6.49796 26.818C7.02694 24.7739 8.23184 22.9224 9.90041 21.6ZM23.0955 20.3429C22.1094 19.5592 21.0057 18.9486 19.8237 18.5306C19.778 18.5143 19.729 18.498 19.68 18.4816C20.689 17.8939 21.5478 17.0743 22.178 16.0816C22.9192 14.9159 23.3143 13.5673 23.3143 12.1829C23.3143 8.16653 20.049 4.90122 16.0327 4.90122C12.0163 4.90122 8.75102 8.16653 8.75102 12.1829C8.75102 13.5641 9.14286 14.9094 9.88082 16.0718C10.5078 17.0612 11.36 17.8808 12.3657 18.4686C12.3037 18.4882 12.2449 18.511 12.1829 18.5306C10.9976 18.9518 9.89714 19.5624 8.90775 20.3494C7.22612 21.6849 5.92653 23.52 5.21796 25.5445C4.17959 24.3722 3.34367 23.0498 2.73306 21.6098C1.97878 19.8302 1.6 17.9461 1.6 16C1.6 14.0539 1.98204 12.1698 2.7298 10.3967C3.45469 8.68245 4.49306 7.14122 5.81551 5.81878C7.13796 4.49633 8.67918 3.45796 10.3935 2.73306C12.1698 1.98204 14.0539 1.6 16 1.6C17.9461 1.6 19.8302 1.98204 21.6033 2.7298C23.3175 3.45469 24.8588 4.49306 26.1812 5.81551C27.5037 7.13796 28.542 8.67918 29.2669 10.3935C30.018 12.1665 30.3967 14.0539 30.3967 15.9967C30.3967 17.9429 30.0147 19.8269 29.2669 21.6C28.6596 23.04 27.8237 24.3624 26.7853 25.5314C26.08 23.5102 24.7771 21.6784 23.0955 20.3429Z" fill="#353535"/>
</svg>
