<svg width="30" height="30" viewBox="0 0 30 30" fill="none" xmlns="http://www.w3.org/2000/svg">
<circle cx="15" cy="15" r="14.5" stroke="#353535"/>
<path d="M13.15 10.22L9.145 20H8.14L4.12 10.22H5.005C5.115 10.22 5.195 10.245 5.245 10.295C5.305 10.335 5.35 10.395 5.38 10.475L8.365 17.87C8.415 18.01 8.46 18.155 8.5 18.305C8.55 18.455 8.6 18.61 8.65 18.77C8.69 18.61 8.73 18.455 8.77 18.305C8.81 18.155 8.86 18.01 8.92 17.87L11.86 10.475C11.93 10.305 12.06 10.22 12.25 10.22H13.15ZM15.7175 20H14.6075V10.22H15.7175V20ZM21.1618 15.35C21.9718 15.35 22.5918 15.15 23.0218 14.75C23.4618 14.34 23.6818 13.805 23.6818 13.145C23.6818 12.455 23.4718 11.935 23.0518 11.585C22.6418 11.225 22.0118 11.045 21.1618 11.045H19.4818V15.35H21.1618ZM21.1618 10.22C22.3918 10.22 23.3068 10.475 23.9068 10.985C24.5068 11.485 24.8068 12.205 24.8068 13.145C24.8068 13.595 24.7268 14.01 24.5668 14.39C24.4068 14.76 24.1718 15.08 23.8618 15.35C23.5518 15.62 23.1668 15.835 22.7068 15.995C22.2568 16.145 21.7418 16.22 21.1618 16.22H19.4818V20H18.3868V10.22H21.1618Z" fill="#353535"/>
</svg>
