<svg width="65" height="65" viewBox="0 0 65 65" fill="none" xmlns="http://www.w3.org/2000/svg">
<path d="M25.8079 17.7159C25.191 16.071 24.4747 16.1903 24.0038 16.1705C23.5262 16.1506 23.115 16.1638 22.4717 16.1705C21.9278 16.1771 21.039 16.3164 20.263 17.099C19.487 17.8817 17.3048 19.7587 17.1589 23.7317C17.0063 27.7113 19.7788 31.6577 20.1701 32.2148C20.5548 32.772 25.463 41.3878 33.6211 44.9363C41.7793 48.4781 41.8191 47.397 43.3181 47.324C44.8171 47.2444 48.213 45.5465 48.9625 43.6893C49.712 41.8256 49.7716 40.2072 49.5793 39.8623C49.387 39.5174 48.8563 39.2919 48.0538 38.8608C47.2512 38.423 43.3247 36.3205 42.5885 36.022C41.8523 35.7235 41.315 35.571 40.738 36.3602C40.1609 37.1495 38.5359 38.9072 38.0385 39.4312C37.541 39.9551 37.0635 40.0016 36.2676 39.5638C35.4716 39.1327 32.8783 38.1776 29.8671 35.3123C27.5257 33.0837 25.9936 30.371 25.5492 29.5485C25.1048 28.7194 25.5492 28.3016 25.9671 27.9102C26.3451 27.5587 26.816 26.9949 27.2405 26.5373C27.665 26.0796 27.8109 25.748 28.1028 25.2174C28.3946 24.6868 28.2752 24.2092 28.0895 23.798C27.9038 23.4 26.4247 19.3608 25.8079 17.7159Z" fill="#353535"/>
<path d="M33.0903 4.64286C40.3796 4.64286 47.2311 7.4551 52.3847 12.5689C57.525 17.6694 60.3571 24.4546 60.3571 31.6643C60.3571 38.874 57.525 45.6525 52.3847 50.7597C47.2311 55.8735 40.3796 58.6857 33.0903 58.6857C28.474 58.6857 23.9173 57.525 19.898 55.3163L18.1536 54.3612L16.2566 54.9648L7.34235 57.7969L10.1546 49.5061L10.851 47.45L9.72347 45.5995C7.1699 41.4077 5.82347 36.5857 5.82347 31.6643C5.82347 24.4546 8.65561 17.6694 13.7959 12.5689C18.9495 7.4551 25.801 4.64286 33.0903 4.64286ZM33.0903 0C15.4673 0 1.18061 14.174 1.18061 31.6643C1.18061 37.6469 2.85204 43.2383 5.75714 48.0138L0 65L17.6694 59.3888C22.2393 61.8959 27.499 63.3286 33.0903 63.3286C50.7133 63.3286 65 49.148 65 31.6643C65 14.174 50.7133 0 33.0903 0Z" fill="#353535"/>
</svg>
