<svg width="52" height="52" viewBox="0 0 52 52" fill="none" xmlns="http://www.w3.org/2000/svg">
<path d="M5.95898 13.3922V16.272C6.65796 15.0051 9.2447 14.0629 12.3314 14.0629C15.4182 14.0629 18.0049 15.0051 18.7039 16.272V13.3922C18.7039 11.8379 15.8518 10.5816 12.3314 10.5816C8.81103 10.5816 5.95898 11.8379 5.95898 13.3922Z" stroke="#FFC412"/>
<path d="M5.9082 50.4517C5.9082 50.7551 6.1429 51 6.43371 51H18.1327C18.4235 51 18.6582 50.7551 18.6582 50.4517V19.2849C17.9592 18.018 15.3725 17.0758 12.2858 17.0758C9.19902 17.0758 6.60718 18.018 5.91331 19.2849V50.4517H5.9082Z" stroke="#FFC412"/>
<path d="M1 33.4178V50.4517C1 50.7551 1.23469 51 1.52551 51H4.33163C4.62245 51 4.85714 50.7551 4.85714 50.4517V33.4178C4.85714 33.1143 4.62245 32.8695 4.33163 32.8695H1.52551C1.23469 32.8695 1 33.1143 1 33.4178Z" stroke="#FFC412"/>
<path d="M15.5307 8.77175C15.5204 8.90482 15.5204 9.02193 15.5307 9.12307C15.5358 9.1763 15.5358 9.21889 15.5409 9.26147C15.546 9.30406 15.5511 9.34132 15.5613 9.37858C15.5868 9.51698 15.6123 9.58618 15.6123 9.58618C15.6123 9.58618 15.6531 9.52763 15.7347 9.42649C15.7755 9.37858 15.8266 9.32003 15.8878 9.25083C15.9184 9.21889 15.949 9.18162 15.9898 9.14969C16.0255 9.11242 16.0613 9.07516 16.1021 9.0379C16.1837 8.96338 16.2755 8.88885 16.3725 8.80901C16.4235 8.77175 16.4745 8.72916 16.5307 8.6919C16.5868 8.65464 16.6429 8.61205 16.699 8.57479C16.9337 8.42574 17.199 8.2767 17.5 8.15426C18.0919 7.90408 18.796 7.71777 19.5817 7.59001C19.9745 7.52614 20.3878 7.46758 20.8164 7.425C20.9235 7.41435 21.0307 7.4037 21.1429 7.39306C21.2653 7.37709 21.3878 7.36644 21.5102 7.35047C21.7449 7.32386 22.0358 7.27595 22.3062 7.22804C22.8368 7.1269 23.3725 6.9885 23.8929 6.80219C24.4133 6.61588 24.9184 6.38167 25.3929 6.09954C25.8674 5.81209 26.3062 5.47142 26.6786 5.0988C27.0562 4.72086 27.3572 4.30033 27.5817 3.89045C27.8062 3.48057 27.9439 3.07601 28.0256 2.71937C28.1072 2.36272 28.1378 2.04865 28.1429 1.79847C28.1531 1.54296 28.1378 1.346 28.1225 1.2076C28.1072 1.07452 28.097 1 28.097 1C28.097 1 28.0409 1.04791 27.949 1.14372C27.9031 1.19163 27.847 1.24486 27.7807 1.31406C27.75 1.346 27.7143 1.38326 27.6735 1.42053C27.6378 1.45779 27.597 1.49505 27.5562 1.53763C27.3878 1.69733 27.1939 1.88896 26.9694 2.07527C26.7449 2.26158 26.4949 2.45321 26.2143 2.61823C25.9337 2.78324 25.6378 2.93761 25.3113 3.07069C24.9847 3.20377 24.6327 3.3262 24.2551 3.43266C23.8776 3.53913 23.4694 3.64026 23.0511 3.73076C22.6276 3.82125 22.1888 3.91174 21.7398 3.99691C21.5153 4.0395 21.3215 4.07676 21.0613 4.12467L20.8776 4.15661L20.6939 4.19387C20.6837 4.19387 20.6786 4.19919 20.6684 4.19919C20.7347 4.09805 20.796 3.99159 20.8521 3.89045C21.0766 3.48057 21.2143 3.07601 21.296 2.71937C21.3776 2.36272 21.4082 2.04865 21.4133 1.79847C21.4235 1.54296 21.4082 1.346 21.3929 1.2076C21.3776 1.07452 21.3674 1 21.3674 1C21.3674 1 21.3113 1.04791 21.2194 1.14372C21.1735 1.19163 21.1174 1.24486 21.0511 1.31406C21.0204 1.346 20.9847 1.38326 20.9439 1.42053C20.9082 1.45779 20.8674 1.49505 20.8266 1.53763C20.6582 1.69733 20.4643 1.88896 20.2398 2.07527C20.0153 2.26158 19.7653 2.45321 19.4847 2.61823C19.2041 2.78324 18.9082 2.93761 18.5817 3.07069C18.2551 3.20377 17.9031 3.3262 17.5255 3.43266C17.148 3.53913 16.7398 3.64026 16.3215 3.73076C15.898 3.82125 15.4592 3.91174 15.0102 3.99691C14.7858 4.0395 14.5919 4.07676 14.3317 4.12467L14.148 4.15661L13.9643 4.19387C13.8266 4.22048 13.6939 4.2471 13.5613 4.27904C13.0256 4.40679 12.4949 4.58778 12 4.81135C11.5051 5.04024 11.0409 5.31704 10.6276 5.64175C10.2194 5.96114 9.86739 6.32311 9.59188 6.70105C9.31637 7.07367 9.11739 7.46226 8.98984 7.81891C8.86229 8.17556 8.80106 8.50027 8.79086 8.76642C8.78065 8.8995 8.78065 9.01661 8.79086 9.11775C8.79596 9.17098 8.79596 9.21356 8.80106 9.25615C8.80616 9.29873 8.81126 9.336 8.82147 9.37326C8.84698 9.51166 8.87249 9.58086 8.87249 9.58086C8.87249 9.58086 8.91331 9.5223 8.99494 9.42116C9.03575 9.37326 9.08677 9.3147 9.148 9.2455C9.17861 9.21356 9.20922 9.1763 9.25004 9.14436C9.28575 9.1071 9.32147 9.06984 9.36228 9.03258C9.44392 8.95805 9.53575 8.88353 9.63269 8.80368C9.68371 8.76642 9.73473 8.72384 9.79086 8.68658C9.84698 8.64931 9.9031 8.60673 9.95922 8.56947C10.1939 8.42042 10.4592 8.27137 10.7602 8.14894C11.3521 7.89875 12.0562 7.71245 12.8419 7.58469C13.2347 7.52081 13.648 7.46226 14.0766 7.41967C14.1837 7.40903 14.2909 7.39838 14.4031 7.38774C14.5256 7.37177 14.648 7.36112 14.7704 7.34515C15.0051 7.31854 15.3011 7.27063 15.5664 7.22272C15.7194 7.1961 15.8776 7.15884 16.0307 7.1269C15.898 7.36112 15.7909 7.59534 15.7092 7.81358C15.6021 8.18088 15.546 8.50559 15.5307 8.77175Z" stroke="#FFC412"/>
<path d="M45.7243 51H50.4743C50.7651 51 50.9998 50.7551 50.9998 50.4517V35.8132V32.8695V27.5464C50.9998 27.1099 50.5304 26.849 50.1835 27.0939L43.0967 32.0923C42.7498 32.3372 42.2804 32.0763 42.2804 31.6398V27.5464C42.2804 27.1099 41.811 26.849 41.4641 27.0939L34.3773 32.0923C34.0304 32.3372 33.561 32.0763 33.561 31.6398V27.5464C33.561 27.1099 33.0916 26.849 32.7447 27.0939L24.6835 32.7737C24.5967 32.8322 24.4947 32.8695 24.3875 32.8695H20.2804C19.9896 32.8695 19.7549 33.1143 19.7549 33.4178V50.4517C19.7549 50.7551 19.9896 51 20.2804 51H37.3263C37.6171 51 37.8518 50.7551 37.8518 50.4517V45.4693C37.8518 45.1659 38.0865 44.921 38.3773 44.921H44.6733C44.9641 44.921 45.1988 45.1659 45.1988 45.4693V50.4517C45.2039 50.7551 45.4386 51 45.7243 51ZM26.3314 40.9393C26.3314 41.2427 26.0967 41.4876 25.8059 41.4876H22.9488C22.6579 41.4876 22.4232 41.2427 22.4232 40.9393V37.9584C22.4232 37.655 22.6579 37.4101 22.9488 37.4101H25.8059C26.0967 37.4101 26.3314 37.655 26.3314 37.9584V40.9393ZM31.8365 40.9393C31.8365 41.2427 31.6018 41.4876 31.311 41.4876H28.4539C28.163 41.4876 27.9284 41.2427 27.9284 40.9393V37.9584C27.9284 37.655 28.163 37.4101 28.4539 37.4101H31.311C31.6018 37.4101 31.8365 37.655 31.8365 37.9584V40.9393ZM37.3416 40.9393C37.3416 41.2427 37.1069 41.4876 36.8161 41.4876H33.959C33.6681 41.4876 33.4335 41.2427 33.4335 40.9393V37.9584C33.4335 37.655 33.6681 37.4101 33.959 37.4101H36.8161C37.1069 37.4101 37.3416 37.655 37.3416 37.9584V40.9393ZM42.8467 40.9393C42.8467 41.2427 42.612 41.4876 42.3212 41.4876H39.4641C39.1733 41.4876 38.9386 41.2427 38.9386 40.9393V37.9584C38.9386 37.655 39.1733 37.4101 39.4641 37.4101H42.3212C42.612 37.4101 42.8467 37.655 42.8467 37.9584V40.9393ZM44.9692 41.4876C44.6784 41.4876 44.4437 41.2427 44.4437 40.9393V37.9584C44.4437 37.655 44.6784 37.4101 44.9692 37.4101H47.8263C48.1171 37.4101 48.3518 37.655 48.3518 37.9584V40.9393C48.3518 41.2427 48.1171 41.4876 47.8263 41.4876H44.9692Z" stroke="#FFC412"/>
</svg>
