<svg width="50" height="50" viewBox="0 0 50 50" fill="none" xmlns="http://www.w3.org/2000/svg">
<path d="M23.6393 0.319851C23.4587 0.561649 23.3607 1.15318 23.3276 2.14799L23.2786 3.62639L22.0327 3.70671C20.8689 3.78703 20.7704 3.73349 20.1638 2.9537C19.3934 1.9589 18.9668 1.74387 17.7046 1.74387C14.6061 1.77065 13.2128 7.47008 15.4913 10.8569C16.2128 11.9321 16.8684 12.2015 18.3439 12.04C19.1638 11.9597 19.5077 11.7714 19.9668 11.2067C20.4913 10.5616 20.6883 10.4804 21.9505 10.4804H23.3602V12.9001V15.293L22.3439 15.3733L21.3112 15.4536L21.2622 17.255L21.2133 19.0831H20.1643H19.099V18.2766C19.099 17.7654 18.9842 17.3897 18.7878 17.2015C18.3286 16.825 14.7878 16.8517 14.5418 17.255C14.427 17.4433 14.3449 18.4113 14.3449 19.6747V21.7731L7.18112 21.8266L0 21.9069V22.7135V23.52L7.13112 23.6547L14.2622 23.7894V33.4673V43.1451L7.13112 43.2798L0 43.4137V44.2202V45.0268L7.1801 45.1071L14.3439 45.1607V47.2574C14.3439 48.5208 14.426 49.4888 14.5408 49.677C14.7867 50.0803 18.3276 50.1071 18.7867 49.7306C18.9832 49.5423 19.098 49.1658 19.098 48.6555V47.8489H25H30.9015V48.6555C30.9015 49.785 31.2786 50 33.2786 50C35.623 50 35.6556 49.9732 35.6556 47.3118V45.1615L42.8357 45.108L49.9995 45.0276V44.2211V43.4145L42.8684 43.2798L35.7372 43.1451V33.4673V23.7886L42.8684 23.6539L50 23.52V22.7135V21.9069L42.8362 21.8266L35.6561 21.7731V19.6763C35.6561 18.413 35.574 17.4449 35.4592 17.2567C35.2133 16.8534 31.6724 16.8266 31.2133 17.2031C31.0163 17.3914 30.9015 17.7679 30.9015 18.2783V19.0848H29.8362H28.7867L28.7378 17.2567L28.6888 15.4553L27.6724 15.375L26.6398 15.2947V12.9018V10.4821H28.0495C29.3117 10.4821 29.5087 10.5624 30.0332 11.2084C30.4923 11.7731 30.8362 11.9614 31.6561 12.0417C33.1316 12.2032 33.7872 11.9337 34.5087 10.8586C36.7872 7.47092 35.3939 1.77232 32.2954 1.74554C31.0332 1.74554 30.6071 1.96057 29.8362 2.95538C29.2622 3.70839 29.1148 3.76193 27.9347 3.76193H26.6398V2.14882C26.6398 0.858665 26.574 0.508934 26.3281 0.267136C25.8852 -0.110203 23.9673 -0.0834274 23.6393 0.319851ZM25.3281 2.95454C25.3281 3.57285 25.2622 3.7611 25 3.7611C24.7378 3.7611 24.6719 3.57285 24.6719 2.95454C24.6719 2.33624 24.7378 2.14799 25 2.14799C25.2622 2.14799 25.3281 2.33624 25.3281 2.95454ZM19 4.16438C19.2622 4.40617 19.5903 4.83623 19.7051 5.10564C19.9347 5.61601 20.1474 5.64362 25 5.64362C29.8526 5.64362 30.0658 5.61684 30.2949 5.10564C30.8357 3.84225 32.3934 3.35866 33.3607 4.16438C34.6883 5.29389 34.6556 8.7343 33.2949 9.78266C32.3112 10.5357 31.0327 10.1859 30.3439 8.89578C30.0327 8.33102 29.9342 8.33102 24.9995 8.33102C20.0653 8.33102 19.9668 8.33102 19.6551 8.89578C18.9668 10.1859 17.6878 10.5357 16.7041 9.78266C15.3434 8.70753 15.2944 5.3466 16.6219 4.16438C17.1969 3.65317 18.4097 3.65317 19 4.16438ZM25.3281 12.9009C25.3281 15.1324 25.3117 15.3206 25 15.3206C24.6888 15.3206 24.6719 15.1324 24.6719 12.9009C24.6719 10.6695 24.6883 10.4813 25 10.4813C25.3117 10.4821 25.3281 10.6704 25.3281 12.9009ZM27.5903 18.1971L27.6393 19.084H25.0163H22.377V18.331C22.377 17.9009 22.426 17.4709 22.4918 17.3629C22.5577 17.2826 23.7214 17.2282 25.0658 17.255L27.5413 17.3353L27.5903 18.1971ZM17.7867 33.4673V47.8497H16.6393H15.5082V33.4673V19.0848H16.6393H17.7867V33.4673ZM34.5082 33.4673V47.8497H33.3607H32.2133V33.4673V19.0848H33.3607H34.5082V33.4673ZM30.9015 33.4673V45.6995H25H19.0985V33.4673V21.2351H25H30.9015V33.4673Z" fill="#353535"/>
<path d="M1.09844 25.8594C0.770376 26.3974 0.868846 27.1495 1.32803 27.4181C2.32803 28.0364 4.01629 27.5796 4.01629 26.6651C4.01629 25.805 3.65558 25.5356 2.45915 25.5356C1.77038 25.5364 1.21323 25.6711 1.09844 25.8594Z" fill="#353535"/>
<path d="M5.52445 25.8594C5.18006 26.4242 5.29486 27.1496 5.77037 27.4457C6.04894 27.6072 7.4423 27.6875 9.29486 27.634C11.9668 27.5537 12.4097 27.4993 12.6556 27.0692C12.8852 26.7195 12.9015 26.5045 12.7704 26.128C12.6066 25.7247 12.1964 25.6712 9.16373 25.59C6.62292 25.5364 5.6719 25.6168 5.52445 25.8594Z" fill="#353535"/>
<path d="M37.4099 25.7247C37.1803 26.0744 37.3114 27.1495 37.6068 27.4181C38.0165 27.7678 43.8528 27.7678 44.4099 27.4181C44.8691 27.1495 44.967 26.3965 44.6395 25.8594C44.4262 25.5097 37.6068 25.375 37.4099 25.7247Z" fill="#353535"/>
</svg>
