<svg width="50" height="50" viewBox="0 0 50 50" fill="none" xmlns="http://www.w3.org/2000/svg">
<path d="M21.5565 0.132761C21.4091 0.245483 21.3602 0.324358 21.3154 0.521549C21.2841 0.662525 21.2753 0.865307 21.2886 0.972437C21.3065 1.07957 21.9404 3.0856 22.6994 5.42951C23.4629 7.76813 24.0834 9.71206 24.0834 9.74032C24.0834 9.77976 23.2129 9.79094 21.668 9.78535L19.2572 9.76857L18.6499 8.30348C18.3195 7.49765 18.0026 6.77629 17.9489 6.703C17.7435 6.41576 17.2211 6.25212 16.7568 6.331C16.5738 6.36484 16.4889 6.41546 16.3951 6.53937C16.1587 6.86076 16.1407 6.64679 16.7703 10.4896L17.1276 12.6761L16.6766 15.4485C16.431 16.9757 16.2256 18.2886 16.2256 18.3619C16.2256 18.5986 16.4175 18.8973 16.6185 18.9706C17.0026 19.1171 17.6989 19.0044 17.8867 18.7678C17.9492 18.6833 18.284 17.9281 18.6278 17.0943L19.2574 15.573L21.6684 15.5562C23.2134 15.5506 24.0839 15.5618 24.0839 15.6013C24.0839 15.6295 23.4634 17.5735 22.6999 19.9121C21.9408 22.2563 21.3068 24.2623 21.289 24.3692C21.2757 24.4763 21.2846 24.6791 21.3158 24.82C21.3651 25.0284 21.4096 25.0961 21.5747 25.22L21.7711 25.3666L22.3827 25.2989C23.1908 25.2088 23.4186 25.1467 23.624 24.9607C23.7267 24.8651 24.9724 22.9097 26.6736 20.1711L29.5489 15.5448H33.0805C37.0362 15.5448 36.956 15.5504 37.6122 15.1448C37.9026 14.9588 38.0677 14.8066 38.3312 14.4799C38.7106 13.9952 38.9072 13.5952 39.0233 13.0769C39.0903 12.7726 39.0947 12.6714 39.0501 12.4009C38.9116 11.55 38.3135 10.6371 37.6125 10.1977C36.9562 9.79182 37.0365 9.79771 33.0807 9.79771H29.5487L26.6778 5.17699C25.0972 2.63001 23.7444 0.494473 23.6639 0.415596C23.4496 0.212814 23.3158 0.167786 22.646 0.0774307C21.8245 -0.0361729 21.7708 -0.0305824 21.5565 0.132761ZM23.1728 1.41744C23.2264 1.48513 24.5792 3.65451 26.1776 6.22975L29.0888 10.9237H32.6917C34.9598 10.9237 36.4019 10.9464 36.585 10.9859C36.9824 11.0647 37.3886 11.3125 37.6789 11.6622C37.9333 11.9665 38.1477 12.4286 38.1477 12.6652C38.1432 12.9074 37.987 13.2738 37.7414 13.6005C37.4823 13.9499 37.2547 14.1359 36.8975 14.2825C36.6699 14.3781 36.4019 14.3896 32.8701 14.4064L29.0884 14.4234L26.1776 19.1112C24.5748 21.6921 23.2262 23.8559 23.1728 23.9236C23.1014 24.0192 22.9986 24.0586 22.7129 24.0981C22.5075 24.1207 22.3424 24.1263 22.3424 24.1037C22.3424 24.0754 24.7935 16.5078 25.4544 14.4849C25.4724 14.4343 24.7802 14.4172 22.088 14.4172H18.6991L17.9937 16.136C17.6008 17.0828 17.2659 17.8548 17.2482 17.8548C17.2258 17.8548 17.2169 17.821 17.2302 17.7815C17.2391 17.7477 17.4312 16.5813 17.6544 15.1951L18.0651 12.6764L17.9669 12.096C17.4891 9.18819 17.2258 7.48647 17.2526 7.48647C17.2705 7.48647 17.6054 8.25845 17.9937 9.20526L18.6991 10.924H22.088C24.7802 10.924 25.4724 10.9073 25.4544 10.8508C24.7935 8.83324 22.3424 1.26528 22.3424 1.23732C22.3424 1.21466 22.5075 1.22025 22.7129 1.24291C22.9988 1.28235 23.1014 1.32179 23.1728 1.41744Z" fill="#353535"/>
<path d="M23.3159 46.9544C23.0518 46.7998 22.7948 46.5937 22.5235 46.3725C21.9375 45.8967 21.3348 45.4027 20.5567 45.4027C19.9564 45.4027 19.4401 45.8118 18.9406 46.2088C18.4867 46.5695 18.0569 46.912 17.6198 46.912C17.5886 46.912 17.5574 46.9059 17.5262 46.9029L20.4222 37.1046C20.4391 37.05 20.4463 36.9924 20.4463 36.9348L20.4078 33.7253C20.4054 33.5071 20.2854 33.3222 20.1173 33.2737L17.4613 32.51V28.7549C17.4613 28.5822 17.3509 28.4397 17.2116 28.4397H16.1886V26.2607C16.1886 26.0879 16.0781 25.9455 15.9389 25.9455H13.098V23.5482C13.098 23.1239 12.9611 22.7299 12.7114 22.4329C12.4593 22.1358 12.1159 21.9783 11.7677 22.0025C11.4195 21.9783 11.0737 22.1358 10.8239 22.4329C10.5742 22.7268 10.4373 23.1239 10.4373 23.5482V25.9455H7.59645C7.45957 25.9455 7.34671 26.0849 7.34671 26.2607V28.4397H6.32372C6.18684 28.4397 6.07397 28.5792 6.07397 28.7549V32.507L3.41804 33.2707C3.24994 33.3192 3.12988 33.5071 3.12747 33.7223L3.08905 36.9318C3.08905 36.9833 3.09385 37.0348 3.10826 37.0864L6.00914 46.8998C5.96831 46.9059 5.92749 46.912 5.88907 46.912C5.46642 46.912 5.03898 46.5725 4.58752 46.2149C4.08322 45.8148 3.56453 45.4027 2.96418 45.4027C2.18853 45.4027 1.58579 45.8967 1.00465 46.3725C0.735695 46.5937 0.481148 46.7998 0.216996 46.9544C0.029688 47.0635 -0.0519591 47.3423 0.0344908 47.5817C0.0969267 47.7545 0.233806 47.8545 0.373086 47.8545C0.425916 47.8545 0.478747 47.8394 0.529176 47.8121C0.841356 47.6302 1.12952 47.3938 1.41048 47.1635C1.92438 46.7422 2.40946 46.3452 2.96178 46.3452C3.346 46.3452 3.75424 46.6695 4.18648 47.012C4.70758 47.4241 5.24549 47.8545 5.88426 47.8545C6.09558 47.8545 6.2925 47.806 6.48461 47.7272C6.49421 47.7272 6.50142 47.7333 6.51102 47.7333C6.55425 47.7333 6.59747 47.7242 6.6407 47.703C6.69353 47.6787 6.73916 47.6333 6.77518 47.5848C7.04413 47.4302 7.29628 47.2271 7.54602 47.0271C7.98067 46.6756 8.39371 46.3452 8.80915 46.3452C9.22939 46.3452 9.64963 46.6786 10.0915 47.0332C10.5982 47.4363 11.1241 47.8545 11.746 47.8545C12.3752 47.8545 12.8867 47.412 13.3406 47.0241C13.7464 46.6756 14.1306 46.3452 14.5437 46.3452C14.9639 46.3452 15.4058 46.6756 15.874 47.0271C16.1694 47.2484 16.472 47.4726 16.7889 47.6333C16.8178 47.6605 16.849 47.6848 16.8874 47.703C16.9282 47.7212 16.9715 47.7302 17.0123 47.7333C17.2068 47.809 17.4061 47.8545 17.6174 47.8545C18.2706 47.8545 18.8373 47.406 19.3368 47.0089C19.7643 46.6695 20.1701 46.3452 20.5543 46.3452C21.1114 46.3452 21.5989 46.7422 22.1176 47.1635C22.3986 47.3938 22.6892 47.6302 23.0013 47.8121C23.1886 47.9212 23.412 47.8181 23.496 47.5817C23.5873 47.3423 23.5032 47.0635 23.3159 46.9544ZM10.9368 23.5482C10.9368 23.2996 11.0184 23.0663 11.1649 22.8935C11.321 22.7087 11.5299 22.6147 11.7532 22.6329C11.7629 22.6329 11.7749 22.6329 11.7845 22.6329C12.0078 22.6117 12.2143 22.7087 12.3728 22.8935C12.5193 23.0693 12.6009 23.2996 12.6009 23.5482V25.9455H11.7677H10.9368V23.5482ZM7.84619 26.5758H10.687H11.7677H12.8483H15.6891V28.4397H11.7677H7.84619V26.5758ZM6.57346 29.0671H11.7677H16.9618V32.3615L11.8877 30.9037C11.8469 30.8916 11.8061 30.8916 11.7677 30.8976C11.7292 30.8916 11.6884 30.8946 11.6476 30.9037L6.57346 32.3645V29.0671ZM3.8719 34.1072L11.7677 31.8341L19.6634 34.1072L19.6898 36.3378L11.8565 33.9132C11.8517 33.9132 11.8469 33.9132 11.8421 33.9102C11.8301 33.9072 11.8157 33.9041 11.8037 33.9041C11.7917 33.9041 11.7797 33.9011 11.7677 33.9011C11.7556 33.9011 11.7436 33.9011 11.7316 33.9041C11.7196 33.9072 11.7052 33.9072 11.6932 33.9102C11.6884 33.9102 11.6836 33.9102 11.6788 33.9132L3.84549 36.3378L3.8719 34.1072ZM8.81395 45.4027C8.17999 45.4027 7.65408 45.8239 7.14739 46.2331C6.99851 46.3543 6.85202 46.4695 6.70794 46.5725L3.96075 37.2712L11.5179 34.9315V46.8726C11.1865 46.7816 10.8503 46.5149 10.4949 46.2331C9.98343 45.8239 9.45032 45.4027 8.81395 45.4027ZM14.5485 45.4027C13.9049 45.4027 13.3838 45.8512 12.9251 46.2452C12.6153 46.5119 12.32 46.7634 12.0174 46.8635V34.9315L19.5746 37.2712L16.813 46.6119C16.6329 46.4967 16.448 46.3604 16.2582 46.2179C15.7275 45.8148 15.1752 45.4027 14.5485 45.4027Z" fill="#353535"/>
<path d="M13.9916 36.462C13.5353 36.462 13.1631 36.9318 13.1631 37.5076C13.1631 38.0835 13.5353 38.5532 13.9916 38.5532C14.4478 38.5532 14.82 38.0835 14.82 37.5076C14.8224 36.9318 14.4502 36.462 13.9916 36.462ZM13.9916 37.9259C13.8091 37.9259 13.6602 37.738 13.6602 37.5076C13.6602 37.2773 13.8091 37.0894 13.9916 37.0894C14.1741 37.0894 14.323 37.2773 14.323 37.5076C14.323 37.738 14.1741 37.9259 13.9916 37.9259Z" fill="#353535"/>
<path d="M25.4112 27.9355L24.8557 28.5796L24.8107 37.1051L24.7656 45.6309L25.1109 46.1424C25.381 46.5213 25.6213 46.6539 26.1316 46.6919C26.7172 46.7296 26.8071 46.7865 26.9422 47.336C27.4227 49.0981 28.6986 50.1211 30.2747 49.9885C31.5506 49.8939 32.3463 49.1926 32.9318 47.715L33.3523 46.6351L37.6157 46.6542L41.879 46.6731L42.2995 47.7341C42.5846 48.454 42.9299 48.9847 43.3653 49.3633C43.9658 49.8748 44.1308 49.9316 45.1966 49.9316C46.2624 49.9316 46.4277 49.8748 47.0282 49.3633C47.4484 48.9843 47.8236 48.4159 48.1089 47.6961C48.4841 46.7677 48.6043 46.6162 48.9646 46.6162C49.4149 46.6162 50.0005 45.8584 50.0005 45.29C50.0005 44.8542 49.4301 43.9637 49.1597 43.9637C48.9947 43.9637 48.9496 43.566 48.9496 41.8797V39.7956L47.7487 36.3476C46.9231 33.9226 46.4125 32.7289 46.0973 32.35C45.6619 31.8574 45.587 31.8385 43.9207 31.8385H42.1945V30.6072C42.1945 29.1483 41.9393 28.2767 41.3689 27.7084C40.9487 27.2914 40.9186 27.2914 33.4728 27.2914H25.9815L25.4112 27.9355ZM41.0834 28.6365C41.3535 29.0154 41.3684 29.432 41.3684 36.461V43.8689L37.1803 43.9257L32.9772 43.9634L32.3767 43.2244C30.9355 41.4435 29.0442 41.4247 27.663 43.1676C27.0476 43.9254 26.9574 43.9823 26.3119 43.9254L25.6063 43.8685V36.461C25.6063 29.432 25.6213 29.0154 25.8917 28.6365C26.177 28.2387 26.2519 28.2387 33.4875 28.2387C40.7232 28.2384 40.7981 28.2384 41.0834 28.6365ZM45.692 33.1075C45.812 33.297 46.4426 34.9261 47.0581 36.7262L48.1988 40.0039V41.8985C48.1988 43.85 48.0937 44.1344 47.6583 43.3005C47.313 42.6183 46.0219 41.8797 45.2113 41.8797C44.3258 41.8985 43.3349 42.4669 42.7046 43.3385L42.1942 44.0395V38.4125V32.7855H43.8157C45.1814 32.7855 45.4817 32.8424 45.692 33.1075ZM31.0856 43.2436C32.7969 44.3423 32.9169 47.4498 31.2957 48.7188C30.3049 49.4767 28.8037 49.1546 28.0981 48.0178C27.0473 46.3315 27.4977 44.096 29.0589 43.1867C29.8545 42.7321 30.2899 42.7321 31.0856 43.2436ZM46.2472 43.2436C47.193 43.85 47.5983 44.7024 47.5983 46.0475C47.5983 47.8853 46.6528 49.1169 45.2113 49.1169C42.4942 49.1169 41.7287 44.6079 44.2055 43.1871C45.0164 42.7321 45.4518 42.7321 46.2472 43.2436ZM26.7772 45.3085C26.7023 45.6117 26.5972 45.6686 26.1468 45.6306C25.7717 45.5925 25.5914 45.4791 25.5613 45.2328C25.5162 44.9676 25.6213 44.9107 26.1767 44.9107C26.7921 44.9107 26.8521 44.9488 26.7772 45.3085ZM42.0441 44.9868C42.0441 45.0245 41.9993 45.1951 41.954 45.3657C41.8788 45.6309 41.3386 45.6689 37.5256 45.6689C33.2923 45.6689 33.1873 45.6689 33.1873 45.29C33.1873 44.9111 33.2923 44.9111 37.6157 44.9111C40.0477 44.9107 42.0441 44.9488 42.0441 44.9868ZM49.1446 45.1762C49.1894 45.3277 49.1894 45.4983 49.1446 45.5552C49.0392 45.6878 48.499 45.7066 48.499 45.5929C48.499 45.5552 48.4542 45.3846 48.4089 45.2139C48.3337 44.9868 48.4089 44.9107 48.6942 44.9107C48.9046 44.9107 49.0995 45.0245 49.1446 45.1762Z" fill="#353535"/>
<path d="M42.8698 33.7709C42.825 34.0172 42.8099 35.5329 42.825 37.1432L42.8698 40.0797L45.0315 40.1366C46.2325 40.1557 47.2684 40.0985 47.3433 40.004C47.4183 39.9091 47.058 38.6209 46.3677 36.6317L45.2718 33.4488L44.1159 33.392C43.02 33.3351 42.945 33.354 42.8698 33.7709ZM45.3168 36.0444C45.6619 37.0106 46.0373 38.1285 46.1725 38.5075L46.3975 39.2273H44.9715H43.5455V36.8969C43.5455 35.6083 43.5906 34.4907 43.6508 34.4339C43.6956 34.3581 43.966 34.3013 44.2361 34.3013C44.7014 34.3013 44.7313 34.3581 45.3168 36.0444Z" fill="#353535"/>
<path d="M29.1646 44.9676C28.6841 45.6117 28.7142 46.6539 29.2246 47.1654C30.0501 47.9802 31.2362 47.3169 31.2362 46.0475C31.2362 44.7401 29.8701 44.0203 29.1646 44.9676ZM30.4405 45.7823C30.4856 45.9341 30.4104 46.2181 30.2754 46.3887C30.0504 46.6731 30.0203 46.6731 29.795 46.3887C29.4798 45.991 29.6299 45.4795 30.0352 45.4795C30.2003 45.4791 30.3805 45.6117 30.4405 45.7823Z" fill="#353535"/>
<path d="M44.3709 45.0057C43.6203 45.9341 44.1456 47.5632 45.1964 47.5632C45.8118 47.5632 46.3974 46.8242 46.3974 46.0475C46.3974 45.2708 45.8118 44.5318 45.1964 44.5318C44.9114 44.5318 44.5959 44.7025 44.3709 45.0057ZM45.602 45.7824C45.6468 45.9341 45.5718 46.2181 45.4366 46.3888C45.2113 46.6731 45.1815 46.6731 44.9564 46.3888C44.6412 45.991 44.7914 45.4795 45.1964 45.4795C45.3615 45.4791 45.542 45.6117 45.602 45.7824Z" fill="#353535"/>
</svg>
