<svg width="52" height="55" viewBox="0 0 52 55" fill="none" xmlns="http://www.w3.org/2000/svg">
<path d="M26.5844 11.4371C26.4028 11.5007 24.4411 13.0515 22.2069 14.8878L18.138 18.2282H13.1971C8.56497 18.2282 8.23793 18.2437 7.76599 18.5287C7.42058 18.7501 6.56701 20.1116 4.95067 22.9451C3.66087 25.2086 2.57107 27.2663 2.51648 27.5357C2.38944 28.2164 2.98893 28.7228 3.91495 28.7228H4.64149V41.3864V54.0499H3.47924C2.17158 54.0499 1.69913 54.3033 2.18944 54.7466C2.46189 54.984 4.7323 55 26.9839 55C48.7269 55 51.506 54.9684 51.7606 54.7626C52.3055 54.2877 51.9238 54.0503 50.5799 54.0503H49.3269L49.3631 41.4344L49.4177 28.8024L50.2172 28.7073C51.107 28.6121 51.507 28.2484 51.4886 27.6309C51.4702 26.9817 46.7656 18.8929 46.2207 18.5447C45.8029 18.2913 45.3126 18.2597 40.8804 18.2437L35.9942 18.2282L35.1768 17.579C34.7227 17.2149 32.9064 15.7428 31.1625 14.3022C27.5293 11.2948 27.3477 11.1841 26.5844 11.4371ZM31.035 15.4578C33.1605 17.1989 35.213 18.9084 35.6125 19.257L36.3391 19.8586L35.6671 20.4441L34.9952 21.0297L32.2161 18.7501C30.6901 17.4994 28.9645 16.0909 28.4013 15.6316C27.838 15.1728 27.2023 14.7926 27.0028 14.7926C26.6758 14.7926 24.5508 16.439 19.7553 20.3961L18.9926 21.0292L18.3206 20.4592L17.6665 19.8892L19.2834 18.5594C20.1732 17.8156 22.2441 16.106 23.8972 14.7446C25.5502 13.3832 26.9671 12.2752 27.0395 12.2592C27.1115 12.2601 28.91 13.7007 31.035 15.4578ZM30.8712 18.8769L34.613 21.9318V37.9988V54.0499H33.5232H32.4339V52.9734C32.4339 51.6596 32.1431 51.2479 31.1441 51.1056L30.436 50.9949V46.6893C30.436 41.3864 30.7084 41.7981 27.3115 41.7349C24.714 41.6713 24.0783 41.7981 23.7329 42.4316C23.6059 42.7006 23.5329 44.2203 23.5329 46.9271C23.5329 50.9794 23.5329 51.0425 23.1513 51.0425C22.7334 51.0425 22.0615 51.3275 21.8615 51.5809C21.789 51.6756 21.716 52.2772 21.716 52.8948V54.0503H20.6262H19.5364V37.9201V21.8055L23.2237 18.7822C25.24 17.1202 26.9472 15.7748 27.0201 15.7903C27.0931 15.8059 28.8191 17.1989 30.8712 18.8769ZM16.8487 19.257C16.3762 19.6687 16.6125 20.2543 17.539 21.0457L18.4472 21.8211V24.876V27.931H11.0905C5.22312 27.931 3.69761 27.8834 3.62465 27.7251C3.49761 27.4401 7.98436 19.4464 8.40222 19.2406C8.89253 18.988 17.139 19.0036 16.8487 19.257ZM45.5488 19.241C45.9845 19.4468 50.4896 27.393 50.3442 27.7256C50.2718 27.8994 48.9095 27.9314 42.9697 27.9314H35.7033V24.7973V21.6633L36.5207 20.967C37.3564 20.2547 37.5743 19.6532 37.1202 19.2574C36.8294 19.0036 44.9855 18.988 45.5488 19.241ZM18.4472 41.3864V54.0499L12.0533 54.0183L5.64098 53.9707L5.58639 41.3388L5.55016 28.7228H11.9987H18.4472V41.3864ZM48.382 41.4179L48.4182 54.0499H42.061H35.7033V41.3864V28.7228L42.0248 28.7544L48.3279 28.802L48.382 41.4179ZM29.4911 46.8791L29.5273 51.042H27.0753H24.6232V46.9583C24.6232 44.7103 24.6778 42.8109 24.7502 42.7478C24.8227 42.7002 25.8946 42.6686 27.1477 42.6842L29.4365 42.7318L29.4911 46.8791ZM31.3436 53.0206V54.0494L27.0385 54.0178L22.7155 53.9703L22.6609 53.1949C22.6247 52.7676 22.6426 52.3243 22.6972 52.2136C22.7696 52.0393 23.6053 51.9922 27.0747 51.9922H31.3436V53.0206Z" fill="#353535"/>
<path d="M26.0761 21.4254C24.1868 21.9634 23.1699 23.1194 23.1699 24.7177C23.1883 27.5668 27.021 29.1181 29.4546 27.2663C29.8001 26.9973 30.2541 26.5064 30.4536 26.1739C31.0893 25.0659 30.8169 23.3248 29.8363 22.4222C28.9822 21.6157 27.1296 21.1248 26.0761 21.4254ZM28.2557 22.5178C28.9822 22.8344 29.6546 23.6258 29.8179 24.3856C29.9087 24.7813 29.8179 25.1139 29.5092 25.6679C28.3832 27.6624 25.6041 27.6624 24.4776 25.6834C24.1505 25.1295 24.0781 24.8129 24.1868 24.3856C24.55 22.6916 26.548 21.7579 28.2557 22.5178Z" fill="#353535"/>
<path d="M24.187 31.4297L23.7145 31.7462V34.6749C23.7145 38.4421 23.4966 38.2207 27.0569 38.2207C30.6895 38.2207 30.5079 38.395 30.5809 34.9759C30.6533 32.0948 30.5079 31.4937 29.7635 31.2402C29.5273 31.1611 28.2742 31.098 27.0028 31.098C24.9135 31.0971 24.6232 31.1291 24.187 31.4297ZM29.4365 34.738V37.3497L27.2747 37.3973C25.8579 37.4288 25.0405 37.3817 24.8768 37.255C24.6768 37.1123 24.6227 36.5267 24.6227 34.6589C24.6227 33.3451 24.6773 32.2055 24.7497 32.1424C24.8222 32.0948 25.8941 32.0632 27.1472 32.0792L29.436 32.1268V34.738H29.4365Z" fill="#353535"/>
<path d="M9.41912 32.0788C8.72881 32.3638 8.60177 32.9334 8.67422 35.7353C8.74667 39.218 8.51044 39.0121 12.3615 39.0121C16.3033 39.0121 16.085 39.234 16.085 35.4663C16.085 32.6964 16.085 32.6644 15.6309 32.2847C15.213 31.905 15.1222 31.889 12.5064 31.905C11.0176 31.9045 9.63749 31.9837 9.41912 32.0788ZM14.9594 35.4819L14.9049 38.1411H12.362H9.81912L9.76453 35.6877C9.74616 34.3423 9.76453 33.1552 9.80075 33.0441C9.8732 32.8858 10.5273 32.8382 12.4528 32.8382H14.9957L14.9594 35.4819Z" fill="#353535"/>
<path d="M9.07459 42.6686C8.76592 42.9692 8.72969 43.3177 8.6751 45.6128C8.63888 47.3384 8.69296 48.3828 8.82051 48.6678C9.14755 49.3801 9.74704 49.4908 12.7261 49.4276C16.2864 49.3645 16.0864 49.5704 16.0864 45.8347C16.0864 42.1306 16.3042 42.3365 12.3261 42.3365C9.60113 42.336 9.40163 42.352 9.07459 42.6686ZM14.9598 45.8658L14.996 48.5251L12.4164 48.4775L9.81898 48.4299L9.76439 45.9765C9.74602 44.6311 9.76439 43.444 9.81898 43.3329C9.87358 43.1586 10.4547 43.127 12.3986 43.1586L14.9052 43.2061L14.9598 45.8658Z" fill="#353535"/>
<path d="M39.0272 32.0472C38.3369 32.2846 38.2461 32.6964 38.2461 35.4979C38.2461 37.9673 38.2823 38.2047 38.6272 38.6004L38.9905 39.0117H41.9696H44.9492L45.3124 38.6004C45.6573 38.2047 45.6941 37.9673 45.6941 35.593C45.6941 32.8386 45.5854 32.3478 44.8405 32.0632C44.3135 31.8569 39.6083 31.8414 39.0272 32.0472ZM44.513 35.5294V38.1411H41.9701H39.4272L39.3726 35.4819L39.3364 32.8226L41.916 32.8702L44.5135 32.9178V35.5294H44.513Z" fill="#353535"/>
<path d="M38.6278 42.7477C38.2829 43.1434 38.2467 43.3809 38.2467 45.8978C38.2467 49.5543 38.0651 49.3645 41.6069 49.4276C44.5314 49.4912 45.1493 49.38 45.4942 48.7313C45.6212 48.4939 45.6942 47.3384 45.6942 45.7555C45.6942 43.3813 45.6579 43.1439 45.3125 42.7482L44.9493 42.3365H41.9702H38.9911L38.6278 42.7477ZM44.5676 45.8502L44.6039 48.5095H41.9702H39.3365V45.9294C39.3365 44.5048 39.3911 43.2857 39.4635 43.2226C39.536 43.175 40.6987 43.1434 42.0431 43.159L44.5136 43.2066L44.5676 45.8502Z" fill="#353535"/>
<path d="M9.99942 5.12177C7.72006 5.12177 5.86719 6.74113 5.86719 8.72927C5.86719 10.7192 7.7221 12.3368 9.99942 12.3368C12.2788 12.3368 14.1316 10.7174 14.1316 8.72927C14.1316 6.73935 12.2788 5.12177 9.99942 5.12177ZM9.99942 11.6384C8.16083 11.6384 6.66711 10.3326 6.66711 8.72927C6.66711 7.12415 8.16287 5.82011 9.99942 5.82011C11.838 5.82011 13.3317 7.12593 13.3317 8.72927C13.3317 10.3344 11.838 11.6384 9.99942 11.6384Z" fill="#353535"/>
<path d="M18.7981 6.98341H17.6227C17.437 6.19244 17.1493 5.75241 16.7922 5.26607L17.6329 4.53209C18.1002 4.12413 18.1002 3.45964 17.6329 3.0499L16.5024 2.06296C16.0494 1.66747 15.2576 1.66747 14.8046 2.06296L13.9659 2.79693C13.4088 2.48695 12.9048 2.23398 11.9988 2.07187V1.04751C11.9988 0.470312 11.4601 0 10.7989 0H9.19906C8.5379 0 7.99918 0.470312 7.99918 1.04751V2.07365C7.09315 2.23576 6.58912 2.48695 6.03204 2.79871L5.19131 2.06474C4.73829 1.66925 3.94654 1.66925 3.49352 2.06474L2.36302 3.05168C1.89573 3.45964 1.89573 4.12413 2.36302 4.53387L3.20375 5.26785C2.84869 5.75419 2.55892 6.19422 2.37323 6.9852H1.19988C0.538721 6.98342 0 7.45373 0 8.03093V9.42761C0 10.0048 0.538721 10.4751 1.19988 10.4751H2.37527C2.56096 11.2661 2.84869 11.7061 3.2058 12.1925L2.36506 12.9264C1.89777 13.3344 1.89777 13.9989 2.36506 14.4086L3.49556 15.3956C3.94858 15.7911 4.74033 15.7911 5.19335 15.3956L6.03408 14.6616C6.59116 14.9716 7.09519 15.2246 8.00122 15.3867V16.4128C8.00122 16.99 8.53995 17.4603 9.2011 17.4603H10.8009C11.4621 17.4603 12.0008 16.99 12.0008 16.4128V15.3867C12.9068 15.2246 13.4109 14.9734 13.968 14.6616L14.8087 15.3956C15.2617 15.7911 16.0514 15.7911 16.5065 15.3956L17.637 14.4086C18.1043 14.0007 18.1043 13.3362 17.637 12.9264L16.7942 12.1925C17.1493 11.7061 17.439 11.2661 17.6247 10.4751H18.8001C19.4613 10.4751 20 10.0048 20 9.42761V8.03093C19.998 7.45373 19.4592 6.98341 18.7981 6.98341ZM19.198 9.42761C19.198 9.62001 19.0185 9.77678 18.7981 9.77678H16.9473L16.8942 10.0707C16.7248 10.9935 16.4432 11.3766 16.0147 11.9573L15.7719 12.2869L17.0697 13.4181C17.2248 13.5553 17.2248 13.7762 17.0697 13.9116L15.9392 14.8985C15.7882 15.0304 15.5249 15.0304 15.3739 14.8985L14.0782 13.7655L13.7006 13.9775C13.0354 14.3516 12.5967 14.5975 11.5396 14.7453L11.2029 14.7917V16.4075C11.2029 16.5999 11.0234 16.7566 10.803 16.7566H9.20314C8.98276 16.7566 8.80318 16.5999 8.80318 16.4075V14.7917L8.46648 14.7453C7.40945 14.5975 6.97072 14.3516 6.30548 13.9775L5.92797 13.7655L4.63218 14.8985C4.48118 15.0304 4.21794 15.0304 4.06693 14.8985L2.93644 13.9116C2.78135 13.7744 2.78135 13.5535 2.93644 13.4181L4.23426 12.2869L3.99143 11.9573C3.5629 11.3766 3.2813 10.9935 3.11193 10.0707L3.05887 9.77678H1.19988C0.979492 9.77678 0.799918 9.62001 0.799918 9.42761V8.03093C0.799918 7.83853 0.979492 7.68176 1.19988 7.68176H3.05071L3.10377 7.38781C3.27314 6.465 3.55474 6.08198 3.98327 5.50122L4.2261 5.17165L2.92827 4.0404C2.77319 3.90323 2.77319 3.68233 2.92827 3.54693L4.05877 2.55999C4.21182 2.42816 4.47301 2.42816 4.62402 2.55999L5.9198 3.69302L6.29732 3.48102C6.96256 3.10691 7.40129 2.86106 8.45832 2.7132L8.79502 2.66688V1.04751C8.79502 0.855112 8.9746 0.698341 9.19498 0.698341H10.7948C11.0152 0.698341 11.1948 0.855112 11.1948 1.04751V2.66332L11.5315 2.70964C12.5885 2.8575 13.0272 3.10334 13.6925 3.47746L14.07 3.68945L15.3658 2.55643C15.5168 2.4246 15.78 2.4246 15.931 2.55643L17.0615 3.54337C17.2166 3.68054 17.2166 3.90145 17.0615 4.03684L15.7637 5.16808L16.0065 5.49766C16.4351 6.07842 16.7167 6.46144 16.886 7.38425L16.9391 7.67819H18.7899C19.0103 7.67819 19.1899 7.83496 19.1899 8.02736V9.42761H19.198Z" fill="#353535"/>
</svg>
