<svg width="50" height="50" viewBox="0 0 50 50" fill="none" xmlns="http://www.w3.org/2000/svg">
<path d="M2.79265 0.243877C1.64063 0.713739 0.615143 1.77054 0.224335 2.88615C0.0585218 3.33658 0.0488281 3.9041 0.0488281 10.0399V16.6947L0.410045 17.4386C0.869219 18.3681 1.66971 19.1708 2.53908 19.6013C3.17376 19.9147 3.18346 19.9147 4.91199 19.9438L6.64053 19.9832V20.4331C6.64053 21.2256 7.0895 21.7348 7.64612 21.5881C8.22213 21.4511 8.30019 21.2553 8.30019 19.9832C8.2905 18.2801 8.31958 18.3001 5.6829 18.3001C4.14976 18.3001 3.66151 18.2709 3.37835 18.1533C2.84112 17.9284 2.14776 17.2433 1.8942 16.6855L1.66002 16.1962V9.98214V3.7681L1.8942 3.26909C2.16766 2.68215 2.73398 2.09469 3.27121 1.8503C3.64212 1.67442 4.47221 1.6642 24.9993 1.6642C45.5265 1.6642 46.3566 1.67391 46.7275 1.8503C47.2744 2.10492 47.8407 2.68215 48.1142 3.28903L48.3484 3.79775L48.3193 10.1002C48.2902 16.3439 48.2902 16.3925 48.0749 16.7842C47.8111 17.2832 47.0984 17.9488 46.6198 18.1544C46.3367 18.272 45.8484 18.3011 44.3153 18.3011C42.2939 18.3011 41.9031 18.3696 41.7566 18.7413C41.7276 18.8293 41.698 19.407 41.698 20.0231C41.698 21.2466 41.7857 21.4521 42.352 21.5891C42.9087 21.7359 43.3576 21.2271 43.3576 20.4341V19.9842L45.0959 19.9449L46.8244 19.9157L47.4887 19.5829C48.3774 19.1324 49.1193 18.3793 49.5784 17.4396L49.9493 16.6957L49.9784 10.1877C49.9978 3.87547 49.9978 3.6505 49.8024 3.03391C49.4213 1.80071 48.3376 0.665679 47.1167 0.205531L46.5698 -2.9297e-06H24.9703H3.36917L2.79265 0.243877Z" fill="#FFC412"/>
<path d="M5.36107 5.11738C5.01924 5.3817 4.98047 5.64603 4.98047 7.53469V9.41362L5.26363 9.69738L5.54678 9.98114H21.6791H37.8017L38.0359 9.74646C38.3584 9.42334 38.3971 9.08078 38.3584 7.16299C38.3293 5.55809 38.3196 5.48958 38.0946 5.24468L37.8604 4.99007H21.6888C9.13038 5.00029 5.47842 5.01972 5.36107 5.11738ZM36.6201 7.4856V8.31745H21.6301H6.64064V7.4856V6.65376H21.6306H36.6206V7.4856H36.6201Z" fill="#FFC412"/>
<path d="M41.4539 5.21554C40.536 5.65575 40.0381 6.44873 40.0381 7.4764C40.0381 8.61143 40.7217 9.54144 41.786 9.85434C42.7722 10.1381 43.7099 9.85434 44.3737 9.08129C45.2426 8.07357 45.1742 6.63484 44.2273 5.6854C43.7681 5.22525 43.3778 5.05909 42.6258 5.01972C42.0595 4.99058 41.8641 5.01972 41.4539 5.21554ZM43.0651 6.89866C43.3972 7.26064 43.3875 7.77959 43.0258 8.08277C42.8794 8.21008 42.6743 8.31745 42.5671 8.31745C42.2937 8.31745 41.8345 8.06283 41.7564 7.87724C41.4248 6.9866 42.4401 6.23298 43.0651 6.89866Z" fill="#FFC412"/>
<path d="M6.00573 11.7818C5.00014 12.2318 4.69708 13.5529 5.40013 14.3556C6.14246 15.1972 7.39244 15.1578 8.02712 14.2677C8.34956 13.7978 8.34956 12.8095 8.01742 12.3396C7.59753 11.743 6.67 11.4884 6.00573 11.7818Z" fill="#FFC412"/>
<path d="M27.0113 13.5238C26.8649 13.6511 26.7281 13.8857 26.6991 14.0621C26.6501 14.3265 26.6894 14.4241 26.9332 14.6787C27.3139 15.0504 27.7439 15.0704 28.0756 14.7278C28.8179 13.9936 27.7924 12.8386 27.0113 13.5238Z" fill="#FFC412"/>
<path d="M30.3122 13.5432C29.9311 13.8663 29.9311 14.4139 30.3122 14.737C31.1229 15.4416 32.1678 14.3162 31.3964 13.5529C31.0933 13.24 30.6637 13.24 30.3122 13.5432Z" fill="#FFC412"/>
<path d="M33.6417 13.5534C33.2901 13.896 33.2998 14.4931 33.6514 14.7667C34.208 15.2069 34.9993 14.8449 34.9993 14.1404C34.9993 13.4164 34.1401 13.0442 33.6417 13.5534Z" fill="#FFC412"/>
<path d="M36.9622 13.5534C36.4545 14.0524 36.806 14.9722 37.4994 14.9722C37.8902 14.9722 38.3785 14.5121 38.3785 14.1404C38.3785 13.9839 38.2611 13.7687 38.0953 13.5923C37.7239 13.2303 37.2943 13.2109 36.9622 13.5534Z" fill="#FFC412"/>
<path d="M10.4395 18.4463C9.9416 18.7204 9.86354 19.2879 10.2834 19.7383L10.4788 19.9633H25H39.5211L39.7165 19.7383C39.9997 19.4351 40.0486 19.2296 39.9216 18.887C39.7068 18.2607 40.6736 18.3001 24.9806 18.3001C12.9691 18.3093 10.6543 18.3287 10.4395 18.4463Z" fill="#FFC412"/>
<path d="M3.65248 23.3883C2.12904 23.6133 0.654578 24.8955 0.195404 26.3926C0.00969369 27.0092 0 27.2929 0 35.8655C0 44.438 0.00969369 44.7218 0.195404 45.319C0.576009 46.5424 1.66986 47.6872 2.88106 48.1376C3.34993 48.314 3.64278 48.3432 5.0198 48.3432H6.62129L6.66058 48.95C6.69986 49.449 6.74833 49.5861 6.97282 49.7819C7.32434 50.0754 7.75392 50.0754 8.05698 49.7625C8.29116 49.5375 8.30136 49.469 8.30136 48.3631C8.30136 47.2475 8.29167 47.1984 8.04728 46.9637C7.8029 46.7291 7.75443 46.7291 5.63509 46.68C3.86727 46.6406 3.4086 46.6017 3.17442 46.4647C2.68617 46.2004 2.13924 45.5935 1.88517 45.0557L1.66068 44.5566L1.68007 35.7591C1.70915 27.4018 1.71935 26.9417 1.89486 26.5991C2.14894 26.0807 2.77392 25.4641 3.25197 25.2391C3.65248 25.0627 4.27746 25.053 24.9995 25.053C45.6047 25.053 46.3465 25.0627 46.7373 25.2391C47.2745 25.484 47.8215 26.0515 48.1046 26.6579L48.3388 27.1569V35.8665V44.5761L48.1046 45.0654C47.8409 45.6426 47.548 45.9657 46.972 46.3471L46.5521 46.6309L44.3746 46.68C42.2456 46.7291 42.1966 46.7291 41.9527 46.9637C41.7088 47.1984 41.6986 47.2475 41.6986 48.3631C41.6986 49.469 41.7083 49.5375 41.943 49.7625C42.2456 50.0759 42.6757 50.0759 43.0272 49.7819C43.2517 49.5861 43.3006 49.449 43.3399 48.95L43.3792 48.3631L45.1077 48.3237C46.7189 48.2946 46.8557 48.2746 47.3633 48.04C48.5449 47.4822 49.3944 46.5327 49.7949 45.3292C50 44.7422 50 44.5756 50 35.8757C50 27.2541 49.9903 27.0097 49.8046 26.3834C49.4337 25.1798 48.3791 24.0836 47.0802 23.5647L46.5332 23.3397L25.3413 23.3295C13.6814 23.3198 3.92594 23.3489 3.65248 23.3883Z" fill="#FFC412"/>
<path d="M5.27323 28.5747C5.00946 28.839 4.94109 29.201 5.09772 29.5144C5.3319 30.0231 5.43955 30.0431 9.15988 30.0431C12.9389 30.0431 13.1052 30.0236 13.2516 29.4755C13.3491 29.1038 13.2909 28.8589 13.0562 28.5946L12.8608 28.3794H9.15988C5.61506 28.3794 5.45894 28.3891 5.27323 28.5747Z" fill="#FFC412"/>
<path d="M15.2539 28.6044L15.0391 28.8293V34.1921V39.5451L15.2834 39.7798L15.5176 40.0247H24.17H32.8219L33.056 39.7798L33.3004 39.5451V34.2018V28.8585L33.056 28.6238L32.8219 28.3789H24.1404H15.459L15.2539 28.6044ZM31.6403 34.2018V38.361H27.4898H23.3394V36.1983C23.3394 34.0162 23.3001 33.7616 22.9588 33.4973C22.695 33.2917 22.1874 33.3505 21.9236 33.6149L21.6792 33.8495V36.1099V38.3605H19.189H16.6987V34.2013V30.0421H24.1695H31.6403V34.2018Z" fill="#FFC412"/>
<path d="M38.5631 28.565C36.7075 29.1616 35.3208 30.7767 35.057 32.6654C34.5785 36.071 37.6646 38.9577 41.0334 38.2531C42.3906 37.9694 43.8752 36.8144 44.4609 35.5914C45.8379 32.7145 44.3732 29.4362 41.3166 28.5358C40.6044 28.3303 39.2661 28.34 38.5631 28.565ZM41.1804 30.2486C41.6003 30.405 41.9028 30.6106 42.3426 31.061C43.0656 31.7952 43.3094 32.3919 43.2997 33.4195C43.2997 34.643 42.5671 35.7877 41.4345 36.3553C40.9462 36.6002 40.7508 36.639 40.0381 36.6487C39.286 36.6487 39.1396 36.6196 38.5539 36.3256C36.4346 35.2882 36.0249 32.5089 37.7631 30.9235C38.6998 30.0625 39.9794 29.8079 41.1804 30.2486Z" fill="#FFC412"/>
<path d="M39.6473 30.9531C39.1299 31.2175 39.0417 31.8929 39.4712 32.2937C39.9401 32.7339 40.8187 32.3817 40.8187 31.7553C40.8187 31.2952 40.7406 31.129 40.4182 30.9726C40.0865 30.7962 39.9595 30.7962 39.6473 30.9531Z" fill="#FFC412"/>
<path d="M5.36102 31.8336C4.91154 32.1761 4.87276 32.6945 5.26357 33.0862L5.54673 33.3699H9.07217C11.1619 33.3699 12.6854 33.3306 12.8415 33.2723C13.1343 33.1649 13.369 32.6853 13.3007 32.3331C13.2813 32.2058 13.1445 32.0099 13.0078 31.9026C12.7736 31.7165 12.6073 31.7068 9.14053 31.7068C6.44518 31.7165 5.47836 31.7456 5.36102 31.8336Z" fill="#FFC412"/>
<path d="M5.26353 35.3174C4.89262 35.6891 4.89262 36.0413 5.26353 36.4136L5.54669 36.6973H9.17927H12.8022L13.0363 36.4524C13.4072 36.0904 13.3976 35.5914 13.0266 35.2489C12.7823 35.0336 12.7823 35.0336 9.16907 35.0336H5.54618L5.26353 35.3174Z" fill="#FFC412"/>
<path d="M5.26363 38.6448C5.09781 38.8212 4.98047 39.0364 4.98047 39.1929C4.98047 39.3493 5.09781 39.5646 5.26363 39.741L5.54678 40.0247H9.16967C12.7829 40.0247 12.7829 40.0247 13.0272 39.7998C13.3982 39.4669 13.4078 38.9679 13.0369 38.6059L12.8028 38.361H9.17987H5.54729L5.26363 38.6448Z" fill="#FFC412"/>
<path d="M18.6421 41.9722C18.0951 42.53 18.4176 43.3521 19.189 43.3521C19.9604 43.3521 20.2828 42.53 19.7359 41.9722C19.365 41.6005 19.0135 41.6005 18.6421 41.9722Z" fill="#FFC412"/>
<path d="M21.9629 41.9721C21.6507 42.2953 21.6114 42.5397 21.8262 42.9507C22.1971 43.6849 23.3399 43.3715 23.3399 42.5299C23.3399 42.2753 23.2716 42.1383 23.0374 41.943C22.6466 41.6102 22.3145 41.6199 21.9629 41.9721Z" fill="#FFC412"/>
<path d="M25.2828 41.9722C24.9798 42.2753 24.9313 42.5494 25.117 42.8919C25.2828 43.2151 25.4976 43.3419 25.8594 43.3521C26.6798 43.3521 26.9823 42.2073 26.2599 41.8351C25.8492 41.6199 25.6053 41.6588 25.2828 41.9722Z" fill="#FFC412"/>
<path d="M28.8077 41.8157C28.3001 42.0703 28.222 42.6869 28.6317 43.1271C29.0807 43.6067 29.9791 43.2641 29.9791 42.6184C29.9791 42.1582 29.9011 41.9921 29.5786 41.8356C29.247 41.6587 29.12 41.6587 28.8077 41.8157Z" fill="#FFC412"/>
<path d="M10.4881 46.8165C9.94121 47.0614 9.85345 47.9812 10.3514 48.2455C10.4687 48.3043 15.7518 48.3432 25.019 48.3432C36.7473 48.3334 39.5304 48.314 39.6671 48.2061C40.1263 47.8636 40.0579 47.0905 39.5401 46.8262C39.1401 46.6207 10.957 46.611 10.4881 46.8165Z" fill="#FFC412"/>
</svg>
