<svg width="50" height="50" viewBox="0 0 50 50" fill="none" xmlns="http://www.w3.org/2000/svg">
<path d="M39.0564 0.117962C36.7309 0.557945 34.562 1.99479 33.2135 3.9788C31.6308 6.3053 31.1717 9.30607 32.0018 11.8965L32.2365 12.6294L28.6017 16.256L24.9767 19.8922L24.5762 19.8432C24.1951 19.7942 23.9507 19.5696 20.3262 15.9431L16.467 12.1017L16.9165 11.6229C17.1803 11.3396 17.4247 10.968 17.493 10.7235C17.6007 10.3616 17.6007 10.2544 17.444 9.85376C17.3461 9.60926 17.2583 9.28667 17.2583 9.14018C17.2583 8.25052 19.6522 5.69942 21.8992 4.19419C22.8175 3.56841 24.3318 2.80635 25.2211 2.52256C26.3155 2.16067 26.6966 1.44761 26.1002 0.850925C25.7487 0.508942 25.3477 0.391548 23.9604 0.245056C20.4726 -0.116322 16.6032 1.08572 13.4767 3.51942C12.7828 4.05689 5.70931 11.0461 5.54298 11.359C5.32819 11.75 5.27921 12.2191 5.41594 12.6197L5.56237 13.0204L4.92716 13.6462C4.34094 14.2424 4.29196 14.272 4.04808 14.1643C3.31542 13.832 2.7292 14.1056 1.42001 15.3959C0.0327579 16.7644 -0.211631 17.2824 0.149595 18.1328C0.305718 18.5238 3.81338 22.1207 4.37053 22.4729C4.76135 22.7174 5.50421 22.7368 5.91441 22.5219C6.07054 22.4438 6.70574 21.8477 7.33125 21.2122C8.65983 19.8728 8.83585 19.5115 8.57208 18.7785L8.42565 18.3584L9.03126 17.7622L9.62718 17.1661L10.0767 17.2835C10.7119 17.4596 11.22 17.2835 11.8547 16.6873L12.3629 16.2085L16.1833 20.0403L20.0038 23.872L20.0624 24.3605L20.1211 24.8495L16.4277 28.5444L12.7246 32.2475L11.9527 32.003C8.92361 31.045 5.67002 31.7391 3.1394 33.8798C1.88889 34.9257 0.696536 36.8413 0.28633 38.4348C-0.123875 39.9891 -0.0555077 41.993 0.442453 43.537C0.725618 44.4165 1.43889 44.8861 2.21083 44.7003C2.38685 44.6513 3.30522 43.8106 4.8588 42.2666L7.22309 39.9013L8.65932 41.3478L10.1052 42.7847L7.74095 45.15C6.19707 46.7042 5.35676 47.623 5.30829 47.7991C5.12257 48.5713 5.59145 49.2849 6.47105 49.5682C8.62055 50.2624 11.0828 50.1154 13.115 49.1578C17.3165 47.183 19.3879 42.3544 17.9517 37.9071L17.7563 37.2813L21.3129 33.7231L24.8793 30.1553L33.888 39.6762C40.1804 46.3132 43.0431 49.265 43.3656 49.4508C43.9911 49.8224 44.5671 49.8908 45.2901 49.6754C45.8375 49.5192 45.9544 49.4309 47.7814 47.5934C49.5013 45.863 49.7161 45.619 49.8722 45.1398C50.087 44.4849 50.0284 43.8203 49.7161 43.2241C49.5401 42.8919 47.0391 40.4679 40.0043 33.7915C34.7962 28.8461 30.5171 24.7407 30.4972 24.6723C30.4875 24.6136 32.0115 23.0206 33.8875 21.1438L37.2972 17.7423L37.9125 17.9378C40.3161 18.7101 42.8171 18.5146 45.0355 17.361C47.263 16.2075 49.1197 13.9106 49.7253 11.555C50.2722 9.46328 49.9304 6.4426 49.061 5.60245C48.7579 5.31916 48.2304 5.19207 47.8008 5.28956C47.6248 5.33856 46.7064 6.17923 45.1528 7.72325L42.7885 10.0886L41.3523 8.6415L39.9064 7.20467L42.2707 4.83937C43.8146 3.28513 44.6549 2.36637 44.7033 2.19027C44.86 1.5451 44.4788 0.782532 43.863 0.538551C42.6717 0.0495644 40.4339 -0.145927 39.0564 0.117962ZM42.486 1.7309L43.0038 1.84829L40.8543 4.01809C38.6656 6.2175 38.3921 6.56919 38.3921 7.22406C38.4018 7.83963 38.7339 8.29952 40.3069 9.85324C42.0069 11.5249 42.2513 11.6714 43.062 11.554C43.5018 11.4953 43.6095 11.3978 45.788 9.22747C47.0386 7.98612 48.084 6.98927 48.1039 7.01836C48.1329 7.04745 48.2309 7.48744 48.3187 7.98612C48.8855 11.2508 47.2635 14.4277 44.2441 16.0013C43.1304 16.5781 42.1921 16.8026 40.8344 16.8123C39.6329 16.8123 38.8707 16.6659 37.7957 16.2356C37.4829 16.1085 37.1508 16.0008 37.0528 16.0008C36.9548 16.0008 35.1865 17.6918 33.1155 19.7641C31.0441 21.8364 29.3048 23.5275 29.2563 23.5275C29.1977 23.5178 28.5237 22.9017 27.742 22.159L26.3252 20.8003L30.1063 17.0078C32.1778 14.9258 33.9069 13.1174 33.9365 13C33.9752 12.8729 33.9069 12.56 33.7604 12.2083C33.1349 10.6444 32.9885 8.77728 33.389 7.27204C34.1513 4.42746 36.6033 2.14995 39.4467 1.63187C40.0334 1.5257 41.8018 1.5844 42.486 1.7309ZM22.7589 1.83859C22.6808 1.88759 22.2313 2.15148 21.7721 2.42507C19.3879 3.8323 16.8772 6.2369 16.0073 7.95754C15.7241 8.50471 15.6752 8.72011 15.6752 9.26728C15.6752 9.77566 15.7144 9.97115 15.8609 10.1273L16.0563 10.3422L13.34 13.0597L10.6139 15.7869L10.2915 15.6501C9.5879 15.3566 9.06034 15.5424 8.13228 16.4224C7.18483 17.3217 6.83278 17.8592 6.83278 18.4069C6.83278 18.6417 6.88176 18.9444 6.95013 19.0812C7.05778 19.3257 7.0185 19.3747 6.19758 20.2051C5.719 20.6936 5.27921 21.0846 5.22053 21.0846C5.17155 21.0846 4.32155 20.2832 3.34451 19.3058L1.55674 17.5172L2.49501 16.5786L3.43277 15.6404L3.83328 15.7869C4.55624 16.0411 4.96696 15.8456 6.06084 14.7411C6.87156 13.9397 7.0185 13.734 7.09656 13.3629C7.18432 12.9622 7.15523 12.6886 6.98891 12.2874C6.93993 12.1797 8.00524 11.0655 10.6139 8.46541C13.643 5.45494 14.4731 4.68266 15.2354 4.18398C16.9747 3.02124 18.7043 2.29797 20.414 1.98508C21.7915 1.74059 23.0323 1.66249 22.7589 1.83859ZM19.4369 17.3212L23.4915 21.3776H24.0584C24.6155 21.3776 24.6252 21.3873 25.2798 21.9834C28.1716 24.6713 48.3482 43.8887 48.3972 44.0153C48.5829 44.5043 48.485 44.6508 46.7656 46.3806C45.8472 47.309 44.9778 48.1206 44.8503 48.1691C44.7135 48.2278 44.4891 48.2375 44.3518 48.2084C44.1661 48.1691 40.9028 44.7871 32.9594 36.4105C26.8431 29.9603 21.7721 24.5646 21.7038 24.4375C21.6257 24.3007 21.5961 24.0563 21.616 23.8802C21.6456 23.7138 21.6456 23.4989 21.6063 23.4111C21.567 23.3233 19.7206 21.4169 17.493 19.1787L13.4481 15.1024L14.3665 14.1837C14.865 13.6753 15.3042 13.2649 15.3338 13.2649C15.3624 13.2649 17.2094 15.0927 19.4369 17.3212ZM22.4563 27.6047L23.8242 29.0512L19.9844 32.9121C17.8639 35.0334 16.1053 36.8709 16.0762 36.9786C16.0369 37.1057 16.1252 37.4676 16.3007 37.9071C16.7109 38.9626 16.8379 39.6762 16.8282 40.8782C16.8185 42.1196 16.5935 43.097 16.1053 44.0648C15.0599 46.1371 13.467 47.5056 11.3272 48.1701C10.741 48.3559 10.3695 48.3952 9.42208 48.4049C8.76748 48.4049 7.97616 48.3462 7.63432 48.2681L7.01901 48.1313L9.21749 45.9125C12.3537 42.7357 12.3537 42.7454 9.70575 40.1356C8.00575 38.4639 7.76136 38.3175 6.95064 38.4348C6.51084 38.4935 6.4037 38.591 4.22461 40.7614C2.9741 42.0027 1.93838 42.9996 1.91899 42.9705C1.80164 42.8434 1.63583 41.8465 1.58685 41.0742C1.38072 37.5845 3.8042 34.3198 7.31187 33.3812C8.79708 32.9805 10.6731 33.127 12.2267 33.7624C12.5588 33.8895 12.9104 33.9773 13.0277 33.9482C13.1451 33.9186 14.9721 32.1592 17.092 30.0287C19.2124 27.9074 20.9808 26.1679 21.0196 26.1679C21.0492 26.1674 21.7038 26.8125 22.4563 27.6047Z" fill="#353535"/>
</svg>
