<svg width="50" height="50" viewBox="0 0 50 50" fill="none" xmlns="http://www.w3.org/2000/svg">
<path d="M24.9994 4.88895C22.7201 4.88895 20.8672 6.43471 20.8672 8.33247C20.8672 10.2319 22.7221 11.776 24.9994 11.776C27.2788 11.776 29.1316 10.2302 29.1316 8.33247C29.1316 6.43301 27.2788 4.88895 24.9994 4.88895ZM24.9994 11.1094C23.1608 11.1094 21.6671 9.86293 21.6671 8.33247C21.6671 6.80032 23.1629 5.55555 24.9994 5.55555C26.838 5.55555 28.3317 6.80202 28.3317 8.33247C28.3317 9.86463 26.838 11.1094 24.9994 11.1094Z" fill="#353535"/>
<path d="M33.7981 6.66599H32.6227C32.437 5.91096 32.1493 5.49094 31.7922 5.0267L32.6329 4.32609C33.1002 3.93667 33.1002 3.30238 32.6329 2.91127L31.5024 1.96919C31.0494 1.59167 30.2576 1.59167 29.8046 1.96919L28.9659 2.6698C28.4088 2.37391 27.9048 2.13244 26.9988 1.97769V0.999898C26.9988 0.448934 26.4601 0 25.7989 0H24.1991C23.5379 0 22.9992 0.448934 22.9992 0.999898V1.97939C22.0932 2.13414 21.5891 2.37391 21.032 2.6715L20.1913 1.97089C19.7383 1.59337 18.9465 1.59337 18.4935 1.97089L17.363 2.91297C16.8957 3.30238 16.8957 3.93667 17.363 4.32779L18.2038 5.0284C17.8487 5.49264 17.5589 5.91266 17.3732 6.66769H16.1999C15.5387 6.66599 15 7.11492 15 7.66588V8.99908C15 9.55005 15.5387 9.99898 16.1999 9.99898H17.3753C17.561 10.754 17.8487 11.174 18.2058 11.6383L17.3651 12.3389C16.8978 12.7283 16.8978 13.3626 17.3651 13.7537L18.4956 14.6958C18.9486 15.0733 19.7403 15.0733 20.1933 14.6958L21.0341 13.9952C21.5912 14.2911 22.0952 14.5325 23.0012 14.6873V15.6668C23.0012 16.2177 23.5399 16.6667 24.2011 16.6667H25.8009C26.4621 16.6667 27.0008 16.2177 27.0008 15.6668V14.6873C27.9068 14.5325 28.4109 14.2928 28.968 13.9952L29.8087 14.6958C30.2617 15.0733 31.0514 15.0733 31.5065 14.6958L32.637 13.7537C33.1043 13.3643 33.1043 12.73 32.637 12.3389L31.7942 11.6383C32.1493 11.174 32.439 10.754 32.6247 9.99898H33.8001C34.4613 9.99898 35 9.55005 35 8.99908V7.66588C34.998 7.11492 34.4592 6.66599 33.7981 6.66599ZM34.198 8.99908C34.198 9.18274 34.0185 9.33238 33.7981 9.33238H31.9473L31.8942 9.61296C31.7248 10.4938 31.4432 10.8594 31.0147 11.4138L30.7719 11.7284L32.0697 12.8082C32.2248 12.9392 32.2248 13.15 32.0697 13.2793L30.9392 14.2213C30.7882 14.3472 30.5249 14.3472 30.3739 14.2213L29.0782 13.1398L28.7006 13.3422C28.0354 13.6993 27.5967 13.934 26.5396 14.0751L26.2029 14.1193V15.6617C26.2029 15.8453 26.0234 15.995 25.803 15.995H24.2031C23.9828 15.995 23.8032 15.8453 23.8032 15.6617V14.1193L23.4665 14.0751C22.4094 13.934 21.9707 13.6993 21.3055 13.3422L20.928 13.1398L19.6322 14.2213C19.4812 14.3472 19.2179 14.3472 19.0669 14.2213L17.9364 13.2793C17.7813 13.1483 17.7813 12.9375 17.9364 12.8082L19.2343 11.7284L18.9914 11.4138C18.5629 10.8594 18.2813 10.4938 18.1119 9.61296L18.0589 9.33238H16.1999C15.9795 9.33238 15.7999 9.18274 15.7999 8.99908V7.66588C15.7999 7.48223 15.9795 7.33259 16.1999 7.33259H18.0507L18.1038 7.052C18.2731 6.17114 18.5547 5.80553 18.9833 5.25116L19.2261 4.93657L17.9283 3.85675C17.7732 3.72581 17.7732 3.51495 17.9283 3.38571L19.0588 2.44363C19.2118 2.31779 19.473 2.31779 19.624 2.44363L20.9198 3.52515L21.2973 3.32279C21.9626 2.96568 22.4013 2.73101 23.4583 2.58987L23.795 2.54566V0.999898C23.795 0.816243 23.9746 0.666599 24.195 0.666599H25.7948C26.0152 0.666599 26.1948 0.816243 26.1948 0.999898V2.54226L26.5315 2.58647C27.5885 2.72761 28.0272 2.96228 28.6925 3.31939L29.07 3.52175L30.3658 2.44023C30.5168 2.31439 30.78 2.31439 30.931 2.44023L32.0615 3.38231C32.2166 3.51325 32.2166 3.72411 32.0615 3.85335L30.7637 4.93317L31.0065 5.24776C31.4351 5.80213 31.7167 6.16774 31.886 7.0486L31.9391 7.32918H33.7899C34.0103 7.32918 34.1899 7.47883 34.1899 7.66248V8.99908H34.198Z" fill="#353535"/>
<path d="M48.5739 9.13227C47.9151 8.62125 47.0477 8.33334 46.1254 8.33334C43.8307 8.33334 41.4591 10.1111 41.3822 13.5156C41.2614 18.6115 38.6922 20.9651 33.7843 25.0317C31.7311 26.7303 30.5343 27.3349 27.3502 27.4501C29.0301 26.1833 30.5672 25.0389 32.0934 23.8873C32.1812 23.8225 32.2691 23.7577 32.3679 23.6857C33.7733 22.6493 35.0689 21.656 35.5081 20.8067C36.1339 19.6047 35.7386 18.4099 34.487 17.7549C33.8062 17.4023 32.9827 17.2223 32.0385 17.2223C29.8975 17.2223 27.6576 18.158 26.5047 18.7194C24.9237 19.4968 23.3316 20.2957 21.7835 21.0658C17.9406 22.9876 13.9659 24.9741 9.94737 26.8095C5.17121 28.9903 -0.274706 32.2076 0.0107652 37.7857C0.142521 40.3913 0.351135 42.9464 0.559749 45.6527C0.647587 46.8187 0.746404 48.0207 0.834241 49.2299L0.88914 50H16.5571L16.6779 49.2731C16.7438 48.8844 16.7987 48.4957 16.8646 48.107C17.0293 47.0778 17.194 46.0198 17.3696 44.9689C17.9186 41.8092 20.1255 39.8371 23.9245 39.1101C29.6339 38.0089 34.3772 36.0367 38.3957 33.0786C41.5688 30.7465 44.3467 27.7739 47.1356 23.7001C47.9261 22.5557 48.2225 21.3105 48.519 20.1085C48.5958 19.8134 48.6617 19.504 48.7496 19.2161C49.035 18.1868 49.2327 17.136 49.4193 16.1211C49.4962 15.6964 49.584 15.2502 49.6719 14.8183C50.3526 12.2416 49.9683 10.2263 48.5739 9.13227ZM47.2234 14.5592L47.2124 14.5952C47.1246 15.0415 47.0367 15.4949 46.9599 15.9268C46.7732 16.92 46.5866 17.9421 46.3121 18.9281C46.2242 19.2376 46.1474 19.5471 46.0815 19.8494C45.796 21.001 45.5325 22.0879 44.8847 23.038C40.6356 29.2279 35.0689 35.2738 23.2328 37.5482C18.4566 38.4695 15.58 40.9671 14.9102 44.7818C14.7235 45.8398 14.5588 46.9051 14.3941 47.9343C14.3722 48.0783 14.3502 48.2222 14.3283 48.3662H3.23879C3.16193 47.4161 3.09605 46.4732 3.01919 45.5591C2.81058 42.86 2.60197 40.3121 2.47021 37.721C2.27257 33.9279 4.92966 31.0632 11.3528 28.1338C15.4153 26.2769 19.4119 24.2831 23.2657 22.3542C24.8029 21.584 26.3949 20.7851 27.965 20.015C28.536 19.7415 30.5013 18.8418 32.0165 18.8418C32.3898 18.8418 32.6973 18.8994 32.9278 19.0217C33.3231 19.2304 33.4219 19.7559 33.1474 20.2741C32.829 20.8859 31.3138 22.0015 30.4904 22.6061C30.3915 22.6781 30.3037 22.7429 30.2159 22.8148C28.1517 24.3623 26.0985 25.9026 23.672 27.7308L21.9701 29.0191L24.5723 29.0767C25.0884 29.0911 25.5605 29.0911 25.9997 29.0911C31.1162 29.0911 32.9937 28.2922 35.7167 26.0393C40.8222 21.8144 43.7209 19.1513 43.8526 13.5444C43.9075 11.0396 45.3898 9.95999 46.1254 9.95999C46.3121 9.95999 46.4987 10.032 46.6744 10.1759C47.3661 10.7157 47.8712 12.148 47.2234 14.5592Z" fill="#353535"/>
</svg>
