<svg width="50" height="50" viewBox="0 0 50 50" fill="none" xmlns="http://www.w3.org/2000/svg">
<path d="M11.6973 0.78099V1.56201H12.4794H13.2616V0.78099V-2.83718e-05H12.4794H11.6973V0.78099Z" fill="#353535"/>
<path d="M14.8262 0.78099V1.56201H15.6083H16.3905V0.78099V-2.83718e-05H15.6083H14.8262V0.78099Z" fill="#353535"/>
<path d="M17.9551 0.78099V1.56201H18.7372H19.5194V0.78099V-2.83718e-05H18.7372H17.9551V0.78099Z" fill="#353535"/>
<path d="M34.3789 5.46715V10.9338H35.1611H35.9432V5.46664V8.58307e-06H35.1611H34.3789V5.46715Z" fill="#353535"/>
<path d="M9.35059 3.90509V4.68611H20.3006H31.2501V7.81019V10.9343H32.0323H32.8241L32.795 7.57583L32.7654 4.21739L32.4721 3.8465C32.3057 3.65137 32.0226 3.40733 31.8363 3.30952C31.5139 3.13375 31.0251 3.12407 20.4271 3.12407H9.35059V3.90509Z" fill="#353535"/>
<path d="M11.6877 6.39438C10.2505 6.84322 9.21427 8.337 9.39998 9.70391C9.53672 10.7386 10.4168 11.8809 11.3551 12.2131L11.6974 12.3399V15.6398V18.9396L11.4337 18.9982C10.7786 19.1546 9.12651 19.8572 8.32498 20.3162C4.22804 22.6588 1.15864 26.9444 0.268846 31.572C-1.10973 38.6888 2.92803 46.0206 9.75202 48.7834C11.424 49.4666 13.8388 49.9843 15.3148 49.9843H15.6082V49.2226V48.4513L14.6107 48.383C11.1694 48.1583 8.07039 46.7624 5.626 44.3317C3.06477 41.7639 1.70558 38.6404 1.55915 34.9497C1.40303 30.9468 2.85967 27.1589 5.67498 24.2208C7.30763 22.5319 9.3607 21.2531 11.5505 20.5893C12.9582 20.1501 13.027 20.1206 13.1541 19.8572C13.2224 19.6911 13.2617 18.4903 13.2617 16.0596V12.4963H15.6082H17.9546V16.0596C17.9546 18.4903 17.9939 19.6911 18.0622 19.8572C18.1893 20.1206 18.248 20.1501 19.7046 20.599C20.9265 20.9699 22.4321 21.7218 23.527 22.5125C24.4852 23.1957 25.8245 24.4847 26.5087 25.3926C26.7827 25.7441 27.0271 26.0467 27.0658 26.0758C27.1536 26.1247 28.3077 25.3732 28.3174 25.2657C28.3174 25.0899 26.6653 23.1667 25.9612 22.5324C24.3383 21.0585 22.1679 19.7695 20.3301 19.174L19.5189 18.9106V15.6306V12.3496L19.9587 12.1641C20.5648 11.9201 21.2393 11.2369 21.552 10.5629C22.2459 9.07878 21.523 7.30226 19.9194 6.55028L19.3719 6.29657L15.7546 6.2772C12.8316 6.25784 12.0495 6.28688 11.6877 6.39438ZM19.5087 7.98546C20.0755 8.26873 20.2515 8.60039 20.2515 9.37173C20.2515 10.1431 20.0755 10.4747 19.5087 10.758C19.2056 10.9139 18.8148 10.9338 15.6076 10.9338C12.401 10.9338 12.0097 10.9144 11.7066 10.758C11.1398 10.4747 10.9638 10.1431 10.9638 9.37173C10.9638 8.60039 11.1398 8.26873 11.7066 7.98546C12.0097 7.82906 12.4005 7.8097 15.6076 7.8097C18.8148 7.8097 19.2056 7.82956 19.5087 7.98546Z" fill="#353535"/>
<path d="M30.1161 12.613C29.9987 12.6619 29.8523 12.8178 29.7936 12.9452C29.7155 13.1209 29.686 15.6591 29.686 21.702V30.2147L23.4778 38.3469C20.066 42.8277 17.2405 46.5963 17.2109 46.7231C17.1717 46.85 17.2012 47.1725 17.2696 47.4262C17.5824 48.6953 18.5308 49.5349 19.9972 49.8472C21.0043 50.0525 46.9901 50.0525 47.8115 49.8375C48.5054 49.6521 49.0334 49.2909 49.4248 48.7146C49.7569 48.2266 50.0799 47.094 49.9819 46.7328C49.9528 46.5963 47.1273 42.8277 43.7151 38.3566L37.5074 30.2147V21.702C37.5074 15.6688 37.4783 13.1209 37.3997 12.9548C37.3411 12.8183 37.1844 12.6619 37.0477 12.6033C36.7349 12.4571 30.4094 12.4668 30.1161 12.613ZM35.9431 14.8389V15.6199H35.161H34.3788V16.4009V17.1819H35.161H35.9431V17.9629V18.744H35.161H34.3788V19.525V20.306H35.161H35.9431V21.087V21.868H35.161H34.3788V22.6491V23.4301H35.161H35.9431V24.2106V24.9916H35.161H34.3788V25.7726V26.5537H35.161H35.9431V27.3347V28.1157H35.161H34.3788V28.8967V29.6777H35.161H35.9431V30.1561C35.9431 30.498 36.0115 30.7222 36.1875 30.9957C36.3242 31.1909 39.0421 34.774 42.2196 38.9425C45.4069 43.111 48.1151 46.6645 48.2421 46.8306L48.4768 47.1526L48.2518 47.6116C47.8018 48.5002 49.1513 48.4217 33.8314 48.4217C21.9237 48.4217 20.2711 48.4023 19.8997 48.2755C19.4012 48.0997 18.9808 47.7288 18.8441 47.3482C18.766 47.0945 19.1079 46.6161 24.8176 39.1381C28.1513 34.7643 30.9671 31.0548 31.0645 30.8984C31.2406 30.6152 31.2502 30.2346 31.2502 22.3271V14.0584H33.5967H35.9431V14.8389Z" fill="#353535"/>
<path d="M35.1317 34.3832C34.8286 34.6176 34.5842 34.8224 34.5842 34.8519C34.5842 34.881 36.4225 37.224 38.671 40.075L42.7475 45.2492L32.6975 45.2783L22.6475 45.2976V45.7368C22.6475 46.2738 22.7939 46.6156 23.1072 46.7522C23.4393 46.9081 43.7551 46.9081 44.0873 46.7522C44.224 46.6936 44.3807 46.5372 44.4393 46.4006C44.5761 46.098 44.5761 45.2487 44.4296 44.9751C44.2633 44.6429 35.846 33.9726 35.7577 33.9726C35.7184 33.9731 35.4347 34.159 35.1317 34.3832Z" fill="#353535"/>
<path d="M14.5324 22.7077C11.4625 23.1468 9.39975 24.1428 7.38597 26.1537C5.31352 28.2232 4.16964 30.6738 3.91556 33.5538L3.84668 34.3639H4.62882H5.41097L5.46964 33.5049C5.83138 28.5747 9.81046 24.6014 14.7574 24.2402L15.6079 24.1816V23.4199V22.6486L15.1972 22.6582C14.9625 22.6684 14.6691 22.6878 14.5324 22.7077Z" fill="#353535"/>
</svg>
