<svg width="50" height="50" viewBox="0 0 50 50" fill="none" xmlns="http://www.w3.org/2000/svg">
<path d="M14.2776 0.225925C12.2348 1.40349 12.1411 6.45405 13.9977 14.4184C14.8266 17.9414 15.8424 21.2455 16.5663 22.7823C16.9631 23.591 16.8348 24.0099 16.0996 24.4491C13.5889 25.9267 7.92719 30.5875 4.78631 33.7717C1.64603 36.9355 0.0114323 39.3906 9.33782e-05 40.9677C-0.0118423 42.405 1.12086 42.9641 3.16365 42.5346C6.01211 41.9356 10.2153 39.5304 15.7839 35.3482C16.8229 34.5697 17.6751 33.9809 17.6751 34.0508C17.6751 34.1207 17.465 37.2544 17.1965 41.0172L16.7178 47.854L16.3908 48.0836C15.9122 48.403 15.7487 48.8923 15.9587 49.3311C16.2971 50.0198 16.1222 49.9999 21.6789 49.9999H26.6871L27.084 49.6607C27.6444 49.1816 27.6324 48.7127 27.0488 48.2234L26.6167 47.854L26.0683 39.8197C25.7645 35.3983 25.4846 31.3962 25.4494 30.9268L25.3796 30.0783L27.2714 30.6176C29.5248 31.2467 33.0387 32.1048 35.0696 32.5237C43.7904 34.2906 48.9389 34.2304 49.8496 32.364C50.0829 31.9048 50.0483 31.6656 49.7212 31.0467C49.0326 29.7992 46.7678 28.3921 43.0086 26.9048C38.2337 25.0083 30.5752 22.8726 26.6292 22.3435C25.8469 22.2435 25.6839 22.1838 25.4034 21.9144C25.1116 21.6251 25.0651 21.4751 24.9368 20.3476C24.3531 15.3373 21.0958 6.10507 18.6556 2.60197C17.9782 1.6239 16.7757 0.466232 16.1455 0.186638C15.5386 -0.0730591 14.7801 -0.0633659 14.2776 0.225925ZM16.1927 3.03055C17.2782 4.6173 18.738 7.70152 19.8348 10.7158C20.8273 13.4705 22.0412 17.8322 22.3915 19.9481L22.4732 20.3874L22.0179 20.3175C21.7613 20.2874 21.2474 20.3073 20.8738 20.3675C20.2084 20.4772 18.9361 20.9563 18.7839 21.1557C18.609 21.395 18.4921 21.1756 18.0367 19.7782C16.8342 16.0654 15.877 12.0031 15.3864 8.38009C15.1763 6.87294 15.0826 2.61115 15.2581 2.25196C15.387 1.99278 15.5971 2.17237 16.1927 3.03055ZM23.0688 22.8129C24.0959 23.4517 24.3877 24.6196 23.7808 25.6471C23.3487 26.3757 22.7537 26.6451 21.621 26.6451C20.594 26.6451 19.7764 26.3058 19.4028 25.7068C19.1575 25.3277 19.0877 24.3594 19.2625 23.8604C19.6128 22.8425 20.3481 22.4333 21.7261 22.4731C22.438 22.5032 22.6248 22.5532 23.0688 22.8129ZM28.5324 24.8486C33.6689 25.9165 40.0784 27.9227 43.9426 29.6594C45.5885 30.3982 47.5854 31.5161 47.503 31.6457C47.4099 31.7656 44.9583 31.7656 43.464 31.6355C40.4633 31.3758 36.4828 30.6972 32.6651 29.789C30.1318 29.1803 25.5085 27.8931 25.2167 27.7135C25.0531 27.6038 25.0764 27.5436 25.45 27.1446C26.0337 26.5257 26.4305 25.7573 26.5123 25.0986C26.594 24.4298 26.5361 24.4395 28.5324 24.8486ZM18.2474 27.5538C18.609 27.8533 19.1814 28.2125 19.5084 28.3523C19.8468 28.4818 20.1153 28.6318 20.1273 28.6915C20.1273 28.8711 14.9669 33.163 13.1228 34.5202C9.76051 36.9753 6.43344 39.0116 3.88815 40.1595C2.75605 40.6682 2.26549 40.8182 2.26549 40.6585C2.26549 40.459 3.35104 38.9019 4.22653 37.8539C5.81397 35.9477 7.61209 34.161 10.2039 31.8957C12.7492 29.6798 14.6637 28.1431 16.1927 27.0849L17.1386 26.4262L17.3719 26.7155C17.5002 26.865 17.8971 27.2441 18.2474 27.5538ZM23.5122 38.7718C23.8393 43.6024 24.0959 47.6346 24.0959 47.7244C24.0959 47.8943 23.8972 47.904 21.6443 47.904H19.1808L19.2506 47.1754C19.2858 46.7861 19.5544 43.1131 19.8462 39.0411L20.36 31.6156L21.2474 30.8074C21.738 30.3584 22.2745 29.8191 22.438 29.6196L22.7531 29.2502L22.8349 29.6196C22.882 29.8191 23.1852 33.9416 23.5122 38.7718Z" fill="#353535"/>
</svg>
