<svg width="50" height="16" viewBox="0 0 50 16" fill="none" xmlns="http://www.w3.org/2000/svg">
<path d="M42.6684 4.76837e-06C46.7092 4.76837e-06 50 3.45168 50 7.69C50 11.9283 46.7092 15.38 42.6684 15.38C38.6276 15.38 35.3367 11.9283 35.3367 7.69C35.3367 3.45168 38.6225 4.76837e-06 42.6684 4.76837e-06ZM42.6684 13.8977C45.9337 13.8977 48.5867 11.1149 48.5867 7.69C48.5867 4.26509 45.9337 1.48235 42.6684 1.48235C39.4031 1.48235 36.75 4.26509 36.75 7.69C36.75 11.1149 39.4031 13.8977 42.6684 13.8977Z" fill="#FFC412"/>
<path d="M25.0004 4.76837e-06C29.0412 4.76837e-06 32.332 3.45168 32.332 7.69C32.332 11.9283 29.0412 15.38 25.0004 15.38C20.9596 15.38 17.6688 11.9283 17.6688 7.69C17.6688 3.45168 20.9596 4.76837e-06 25.0004 4.76837e-06ZM25.0004 13.8977C28.2657 13.8977 30.9188 11.1149 30.9188 7.69C30.9188 4.26509 28.2657 1.48235 25.0004 1.48235C21.7351 1.48235 19.082 4.26509 19.082 7.69C19.082 11.1149 21.7351 13.8977 25.0004 13.8977Z" fill="#FFC412"/>
<path d="M7.33146 4.76837e-06C11.3723 4.76837e-06 14.6631 3.45168 14.6631 7.69C14.6631 11.9283 11.3723 15.38 7.33146 15.38C3.29064 15.38 -0.000175476 11.9283 -0.000175476 7.69C-0.000175476 3.45168 3.29064 4.76837e-06 7.33146 4.76837e-06ZM7.33146 13.8977C10.5968 13.8977 13.2498 11.1149 13.2498 7.69C13.2498 4.26509 10.5968 1.48235 7.33146 1.48235C4.06615 1.48235 1.41309 4.26509 1.41309 7.69C1.41309 11.1149 4.06615 13.8977 7.33146 13.8977Z" fill="#FFC412"/>
</svg>
