<svg width="50" height="50" viewBox="0 0 50 50" fill="none" xmlns="http://www.w3.org/2000/svg">
<path d="M12.622 0.0549116C12.5143 0.10388 12.3383 0.240584 12.2306 0.357906C12.0449 0.563473 12.0352 0.729763 12.0056 3.25268L11.9766 5.93219H12.9546H13.9327L13.9618 4.53403C13.9812 3.77144 13.9715 2.55844 13.9424 1.85452C13.8934 0.632335 13.8837 0.544089 13.649 0.309447C13.375 0.0447092 12.925 -0.0721011 12.622 0.0549116Z" fill="#353535"/>
<path d="M18.6465 0.0447307C18.5194 0.0840077 18.3138 0.240094 18.2062 0.387001C18.0108 0.651228 18.0005 0.807318 17.9715 3.30116L17.9424 5.9317H18.9791H20.0159L19.9863 3.2425L19.9572 0.553291L19.7128 0.308958C19.4485 0.0447297 19.0184 -0.0623884 18.6465 0.0447307Z" fill="#353535"/>
<path d="M24.6426 0.0549326C24.5253 0.103901 24.3396 0.270191 24.2222 0.416587C24.0268 0.671123 24.0166 0.768551 24.0166 3.30116V5.9317H24.9947H25.9727V3.29147V0.65123L25.7085 0.357927C25.4151 0.0447302 24.9753 -0.0822821 24.6426 0.0549326Z" fill="#353535"/>
<path d="M30.6777 0.0549116C30.5507 0.084497 30.3451 0.240583 30.2374 0.38749C30.042 0.651718 30.0323 0.807807 30.0027 3.30165L29.9736 5.93219H31.0104H32.0374V3.50721C32.0374 1.05265 31.9788 0.504813 31.666 0.241095C31.4604 0.0549116 30.991 -0.0333343 30.6777 0.0549116Z" fill="#353535"/>
<path d="M36.6734 0.0549326C36.5561 0.103901 36.3703 0.270191 36.2525 0.416587C36.0571 0.671123 36.0469 0.768551 36.0469 3.30116V5.9317H37.0249H38.0127L37.9831 3.2425L37.954 0.553291L37.7096 0.308958C37.4362 0.035038 36.9867 -0.0720801 36.6734 0.0549326Z" fill="#353535"/>
<path d="M9.00316 7.25179C8.23071 7.56448 7.49703 8.31788 7.21335 9.09016L6.99805 9.65738V25.001V40.344L7.20366 40.9112C7.49703 41.6835 8.30877 42.4956 9.08174 42.7889L9.64909 42.9944H24.9956H40.3417L40.909 42.7889C41.6815 42.4956 42.4937 41.684 42.7871 40.9112L42.9927 40.344V25.001V9.65789L42.7871 9.09068C42.4937 8.31789 41.682 7.50632 40.909 7.21302L40.3417 7.00746H24.966H9.5899L9.00316 7.25179ZM40.2442 9.13913C40.4299 9.22738 40.6743 9.43243 40.782 9.57934L40.9876 9.85326V25.001V40.1486L40.782 40.4226C40.6743 40.5695 40.4299 40.7745 40.2442 40.8628C39.9314 41.0291 39.0019 41.0388 24.9956 41.0388C10.9889 41.0388 10.0598 41.0291 9.74705 40.8628C9.56133 40.775 9.31643 40.5695 9.20929 40.4226L9.00367 40.1486V25.001V9.85326L9.20929 9.57934C9.31694 9.43243 9.56133 9.22738 9.74705 9.13913C10.0598 8.97284 10.9894 8.96315 24.9956 8.96315C39.0019 8.96315 39.9309 8.97335 40.2442 9.13913Z" fill="#353535"/>
<path d="M15.6446 17.0797C15.5272 17.119 15.3415 17.2853 15.2242 17.4317L15.0186 17.6959V25.0106V32.335L15.3022 32.6477L15.5859 32.9706H24.9952H34.4044L34.6881 32.6477L34.9718 32.335V25.0009V17.6668L34.6881 17.3541L34.4044 17.0312L25.1222 17.0118C20.0262 17.0016 15.7522 17.0307 15.6446 17.0797ZM33.0156 25.0009V30.9659H24.9952H16.9747V25.0009V19.0359H24.9952H33.0156V25.0009Z" fill="#353535"/>
<path d="M0.591622 12.0828C0.229884 12.2394 0.00488281 12.5817 0.00488281 12.9923C0.00488281 13.3152 0.0635567 13.4326 0.327844 13.6672L0.640602 13.9508H3.28144H5.92227V12.973V11.9951L3.3595 12.0048C1.94112 12.0043 0.699276 12.0436 0.591622 12.0828Z" fill="#353535"/>
<path d="M44.0679 12.9628V13.9406L45.4664 13.9702C46.2291 13.9896 47.4424 13.9799 48.1465 13.9508C49.3985 13.9018 49.4572 13.8922 49.7113 13.6279C50.0832 13.2561 50.0832 12.6894 49.7113 12.3175L49.447 12.0436L46.7572 12.0145L44.0674 11.9849V12.9628H44.0679Z" fill="#353535"/>
<path d="M0.678544 18.0673C0.228541 18.1943 0.0234375 18.4779 0.0234375 18.9865C0.0234375 19.2211 0.0821114 19.4951 0.160173 19.5828C0.472931 19.9643 0.835178 20.0133 3.42703 20.0133H5.92144V18.9865V17.9597L3.45663 17.9694C2.09692 17.9699 0.844872 18.0188 0.678544 18.0673Z" fill="#353535"/>
<path d="M44.0684 18.9967V20.0235L46.7582 19.9939L49.448 19.9643L49.7123 19.6904C49.9373 19.4751 49.9863 19.3384 49.9766 18.9865C49.9572 18.0377 49.6832 17.9597 46.5628 17.9597H44.0684V18.9967Z" fill="#353535"/>
<path d="M0.326868 24.3062C0.0630903 24.5408 0.00390625 24.6582 0.00390625 25.0004C0.00390625 25.3427 0.0625801 25.46 0.326868 25.6947L0.639625 25.9783H3.28046H5.9213V25.0004V24.0226H3.28097H0.640135L0.326868 24.3062Z" fill="#353535"/>
<path d="M44.0684 25.001V25.9788H46.7092H49.35L49.6633 25.6952C49.9276 25.4606 49.9863 25.3432 49.9863 25.001C49.9863 24.6587 49.9276 24.5414 49.6633 24.3067L49.35 24.0231H46.7092H44.0684V25.001Z" fill="#353535"/>
<path d="M0.679224 30.0565C0.287895 30.1345 0.00421901 30.5456 0.013913 31.0149C0.0333009 31.9637 0.307283 32.0417 3.42771 32.0417H5.92212V31.0149V29.9881L3.40833 29.9978C2.01954 30.0075 0.786878 30.0371 0.679224 30.0565Z" fill="#353535"/>
<path d="M44.0684 31.0149V32.0515L46.6995 32.0219C49.1837 31.9928 49.35 31.9826 49.6046 31.7872C50.1133 31.4057 50.1133 30.6237 49.6046 30.2422C49.3505 30.0463 49.1939 30.0366 46.6995 30.0075L44.0684 29.9784V31.0149Z" fill="#353535"/>
<path d="M1.7944 36.0511C0.591331 36.1 0.532657 36.1097 0.278573 36.3638C-0.0928578 36.7453 -0.0928578 37.3125 0.278573 37.6839L0.542861 37.9578L3.23268 37.9874L5.92249 38.017V37.0391V36.0613L4.48473 36.0317C3.68217 36.0118 2.4791 36.0215 1.7944 36.0511Z" fill="#353535"/>
<path d="M44.0684 37.0289V38.017L46.7582 37.9874L49.448 37.9578L49.7123 37.6839C50.1133 37.2926 50.0939 36.7157 49.6633 36.3342L49.35 36.0506H46.7092H44.0684V37.0289Z" fill="#353535"/>
<path d="M12.0061 46.7589L12.0357 49.4481L12.3097 49.7123C12.701 50.1133 13.2781 50.0934 13.6597 49.6634L13.9434 49.3507V46.7105V44.0702H12.9653H11.9775L12.0061 46.7589Z" fill="#353535"/>
<path d="M17.9715 46.7003C18.0005 49.1941 18.0108 49.3502 18.2062 49.6047C18.5878 50.1133 19.3699 50.1133 19.7516 49.6047C19.947 49.3507 19.9567 49.1844 19.9863 46.7003L20.0159 44.0697H18.9791H17.9424L17.9715 46.7003Z" fill="#353535"/>
<path d="M24.0166 46.71V49.3502L24.3003 49.6629C24.535 49.9271 24.6523 49.9858 24.9947 49.9858C25.337 49.9858 25.4544 49.9271 25.6891 49.6629L25.9727 49.3502V46.71V44.0697H24.9947H24.0166V46.71Z" fill="#353535"/>
<path d="M30.0027 46.7589L30.0323 49.4481L30.3063 49.7124C30.5216 49.9373 30.6583 49.9863 31.0104 49.9766C31.9594 49.9572 32.0374 49.6833 32.0374 46.5636V44.0702H31.0007H29.9736L30.0027 46.7589Z" fill="#353535"/>
<path d="M36.0277 45.4582C36.0083 46.2305 36.018 47.4435 36.0471 48.1474C36.096 49.3992 36.1057 49.4578 36.37 49.7118C36.7414 50.0832 37.3093 50.0832 37.6807 49.7118L37.9547 49.4476L37.9838 46.7584L38.0134 44.0692H37.0348H36.0567L36.0277 45.4582Z" fill="#353535"/>
<path d="M29.5 23.5C30.0523 23.5 30.5 23.0523 30.5 22.5C30.5 21.9477 30.0523 21.5 29.5 21.5C28.9477 21.5 28.5 21.9477 28.5 22.5C28.5 23.0523 28.9477 23.5 29.5 23.5Z" stroke="#353535"/>
<path d="M21.3329 21.3057C21.3275 20.7534 20.8755 20.3101 20.3232 20.3155C19.771 20.3209 19.3276 20.773 19.333 21.3252C19.3384 21.8775 19.7905 22.3208 20.3428 22.3154C20.895 22.31 21.3383 21.8579 21.3329 21.3057Z" stroke="#353535"/>
<path d="M20.3387 26.6717C19.7865 26.675 19.3414 27.1254 19.3447 27.6776C19.348 28.2299 19.7984 28.675 20.3506 28.6717C20.9029 28.6684 21.348 28.218 21.3447 27.6657C21.3414 27.1135 20.891 26.6684 20.3387 26.6717Z" stroke="#353535"/>
<line x1="29.5" y1="21.6667" x2="29.5" y2="18.3334" stroke="#353535"/>
<line x1="19.5" y1="21.3236" x2="16.1668" y2="21.3561" stroke="#353535"/>
<line x1="20.3496" y1="28.505" x2="20.3695" y2="31.8382" stroke="#353535"/>
<rect x="25.5" y="26.5" width="8" height="6" stroke="#353535"/>
<line x1="25.5" y1="25" x2="25.5" y2="31.6667" stroke="#353535"/>
<line x1="17.167" y1="24.5" x2="32.8337" y2="24.5" stroke="#353535" stroke-linecap="round"/>
</svg>
