<svg width="50" height="54" viewBox="0 0 50 54" fill="none" xmlns="http://www.w3.org/2000/svg">
<path d="M45.1964 46.9565C44.7015 46.9565 44.2067 46.7702 43.8138 46.4023C43.8138 46.4023 36.1002 40.6595 31.1568 36.0299C26.6061 31.7682 23.438 27.9699 23.3411 27.8791C23.2442 27.7883 22.8463 27.7883 22.6473 27.9699L20.5709 30.0052C20.474 30.096 20.372 30.1915 20.372 30.3779C20.372 30.4686 20.4689 30.655 20.5709 30.7505L21.4586 31.5818C21.8565 31.9545 22.0504 32.4132 22.0504 32.9722C22.0504 33.5312 21.8514 33.9898 21.4586 34.3625L17.3059 38.2515C16.5152 38.9921 15.1326 38.9921 14.3368 38.2515L0.593061 25.4712C-0.197687 24.7306 -0.197687 23.4359 0.593061 22.6905L4.74577 18.8015C5.53651 18.0609 6.91905 18.0609 7.7149 18.8015L8.60258 19.6328C8.80154 19.8191 9.19436 19.8191 9.39333 19.6328L20.9689 8.79696C21.1678 8.61062 21.1678 8.24274 20.9689 8.05641L20.0812 7.22509C19.2904 6.48454 19.2904 5.18979 20.0812 4.44446L24.2339 0.555409C25.0246 -0.185136 26.4072 -0.185136 27.203 0.555409L40.8498 13.3358C41.6406 14.0763 41.6406 15.3711 40.8498 16.1164L36.6971 20.0055C35.9064 20.746 34.5238 20.746 33.728 20.0055L32.8403 19.1741C32.6413 18.9878 32.2485 18.9878 32.0495 19.1741L29.2794 21.7684C29.1824 21.8592 29.0804 21.9548 29.0804 22.1411C29.0804 22.2319 29.0804 22.4182 29.1773 22.5138C29.7691 22.9772 34.5187 26.2165 38.0796 29.5513C42.8241 33.9946 49.4511 41.0369 49.4511 41.1277C50.4408 42.0546 49.849 43.163 49.548 43.722C49.548 43.722 49.0532 44.6489 48.1655 45.4802C47.2778 46.3115 46.385 46.6842 46.2881 46.6842C46.1861 46.7702 45.6912 46.9565 45.1964 46.9565ZM23.1421 26.398C23.7339 26.398 24.2288 26.5844 24.6267 26.9522C24.7236 27.043 27.8917 30.8413 32.3403 35.0122C37.1869 39.5511 44.8035 45.2939 44.9005 45.2939C44.9974 45.3846 45.0994 45.4802 45.1964 45.4802C45.3953 45.4802 45.5943 45.3894 45.8902 45.2939C45.9871 45.2939 46.6809 44.9212 47.3748 44.367C48.0686 43.7172 48.3645 43.0722 48.3645 43.0722C48.7624 42.3317 48.6604 42.2409 48.5634 42.1454C48.4665 42.0546 41.9365 35.0122 37.192 30.569C33.5341 27.1434 28.3917 23.713 28.3917 23.713L28.2948 23.5266C27.8968 23.154 27.6009 22.5998 27.6009 22.1363C27.6009 21.6729 27.7999 21.1187 28.1927 20.746L30.9629 18.1517C31.7537 17.4112 33.1362 17.4112 33.932 18.1517L34.8197 18.983C35.0187 19.1694 35.4115 19.1694 35.6105 18.983L39.7632 15.094C39.9621 14.9076 39.9621 14.5398 39.7632 14.3534L26.1113 1.57306C25.9123 1.38673 25.5195 1.38673 25.3205 1.57306L21.1627 5.46689C20.9638 5.65322 20.9638 6.02111 21.1627 6.20744L22.0504 7.03876C22.8412 7.7793 22.8412 9.07406 22.0504 9.81939L10.582 20.6552C9.79125 21.3958 8.40872 21.3958 7.61287 20.6552L6.62316 19.8239C6.42419 19.6376 6.03137 19.6376 5.83241 19.8239L1.6848 23.7082C1.48584 23.8945 1.48584 24.2624 1.6848 24.4487L15.3316 37.2291C15.5306 37.4154 15.9234 37.4154 16.1223 37.2291L20.275 33.34C20.372 33.2493 20.474 33.1537 20.474 32.9674C20.474 32.781 20.3771 32.6903 20.275 32.5947L19.3874 31.7634C18.9894 31.3907 18.7956 30.9321 18.7956 30.3731C18.7956 29.8189 18.9945 29.3554 19.3874 28.9828L21.5606 26.9475C21.9586 26.5796 22.5504 26.398 23.1421 26.398Z" fill="#FFC412"/>
<path d="M20.6681 24.2672C19.3825 24.2672 18.0969 23.8037 17.2092 22.8768C15.2298 21.0231 15.2298 18.1517 17.2092 16.3027C18.4948 15.0987 20.3722 14.6353 22.1526 15.0987C22.5506 15.1895 22.8464 15.6529 22.6475 16.0256C22.5506 16.3983 22.0557 16.6754 21.6578 16.489C20.4691 16.1164 19.1835 16.489 18.2958 17.3204C17.0102 18.5243 17.0102 20.5597 18.2958 21.7636C19.5814 22.9676 21.7547 22.9676 23.0403 21.7636C23.7341 21.1139 24.1269 20.187 24.03 19.1693C24.03 18.7967 24.3259 18.4288 24.7238 18.338C25.1218 18.338 25.5146 18.6151 25.6115 18.9878C25.8105 20.3781 25.2136 21.7684 24.229 22.7861C23.2444 23.8037 21.9588 24.2672 20.6681 24.2672Z" fill="#FFC412"/>
<path d="M11.5564 41.6452L15.0241 47.347L11.5564 53.0489H4.63411L1.16472 47.347L4.63411 41.6452H11.5564ZM12.1429 40.6956H4.04762L0 47.347L4.04762 54H12.1429L16.1905 47.347L12.1429 40.6956Z" fill="#FFC412"/>
<path d="M8.09514 45.4464C9.2103 45.4464 10.1189 46.2997 10.1189 47.347C10.1189 48.3943 9.2103 49.2476 8.09514 49.2476C6.97832 49.2476 6.07132 48.3943 6.07132 47.347C6.07132 46.2997 6.97832 45.4464 8.09514 45.4464ZM8.09514 44.4969C6.41661 44.4969 5.05859 45.7722 5.05859 47.347C5.05859 48.9218 6.41661 50.1987 8.09514 50.1987C9.77036 50.1987 11.1317 48.9234 11.1317 47.347C11.1317 45.7722 9.77036 44.4969 8.09514 44.4969Z" fill="#FFC412"/>
</svg>
