<svg width="52" height="44" viewBox="0 0 52 44" fill="none" xmlns="http://www.w3.org/2000/svg">
<line x1="14.4258" y1="40" x2="37.5741" y2="40" stroke="#353535"/>
<line x1="31.9814" y1="26.5" x2="31.9814" y2="16.5" stroke="#353535" stroke-linecap="round"/>
<line x1="20.8701" y1="26.5" x2="15.3886" y2="26.5" stroke="#353535" stroke-linecap="round"/>
<line x1="36.6113" y1="26.5" x2="32.0557" y2="26.5" stroke="#353535" stroke-linecap="round"/>
<line x1="20.8701" y1="26.5" x2="20.8701" y2="16.5" stroke="#353535" stroke-linecap="round"/>
<path d="M44.8335 22.5H38.0742C37.5219 22.5 37.0742 22.9477 37.0742 23.5V42.5C37.0742 43.0523 37.5219 43.5 38.0742 43.5H44.8335C46.2143 43.5 47.3335 42.3807 47.3335 41V25C47.3335 23.6193 46.2142 22.5 44.8335 22.5Z" stroke="#353535"/>
<path d="M16.2402 7.49999V15C16.2402 15.5523 16.688 16 17.2402 16H34.7589C35.3112 16 35.7589 15.5523 35.7589 15V7.49999C35.7589 6.11928 34.6396 4.99999 33.2589 4.99999H18.7402C17.3595 4.99999 16.2402 6.11928 16.2402 7.49999Z" stroke="#353535"/>
<path d="M7.16646 43.5H13.9258C14.4781 43.5 14.9258 43.0523 14.9258 42.5V23.5C14.9258 22.9477 14.4781 22.5 13.9258 22.5H7.16646C5.78575 22.5 4.66646 23.6193 4.66646 25V41C4.66646 42.3807 5.78575 43.5 7.16646 43.5Z" stroke="#353535"/>
<path d="M48.2227 27.5H47.7227V28V38V38.5H48.2227H50.0005C50.8289 38.5 51.5005 37.8284 51.5005 37V29C51.5005 28.1716 50.8289 27.5 50.0005 27.5H48.2227Z" stroke="#353535"/>
<path d="M20.8701 4V4.5H21.3701L30.6294 4.5H31.1294V4V2C31.1294 1.17157 30.4579 0.499998 29.6294 0.499998L22.3701 0.499998C21.5417 0.499998 20.8701 1.17157 20.8701 2V4Z" stroke="#353535"/>
<path d="M3.77734 38.5H4.27734V38L4.27734 28V27.5H3.77734H1.99955C1.17112 27.5 0.499547 28.1716 0.499547 29L0.499547 37C0.499547 37.8284 1.17112 38.5 1.99955 38.5H3.77734Z" stroke="#353535"/>
</svg>
